<?xml version="1.0" encoding="utf-8"?>
<!DOCTYPE svg
  PUBLIC '-//W3C//DTD SVG 1.0//EN'
  'http://www.w3.org/TR/2001/REC-SVG-20010904/DTD/svg10.dtd'>
<svg fill-rule="evenodd" height="14.4" preserveAspectRatio="xMinYMin meet" version="1.0" viewBox="0 0 306 14" width="306.28799999999995" xmlns="http://www.w3.org/2000/svg" xmlns:xlink="http://www.w3.org/1999/xlink">
	<title>...</title>
	<desc>...</desc>
	<clipPath id="clip">
		<rect height="14.4" width="306.28799999999995" x="0" y="0"/>
	</clipPath>
	<g id="group" style="clip-path: url(#clip)" transform="scale(1,-1) translate(0,-14)">
		<g transform="">
			<polygon points="15.3144 11.574, 32.26027 11.574, 36.63427 7.2, 32.26027 2.826, 15.3144 2.826" style="stroke: rgb(60%,60%,60%); stroke-linecap: round; stroke-width: 1; fill: rgb(60%,60%,60%); fill-rule: evenodd; fill-opacity: 0.5; stroke-opacity: 0.5;"/>
			<polygon points="36.4677 11.574, 39.46405 11.574, 43.83805 7.2, 39.46405 2.826, 36.4677 2.826" style="stroke: rgb(60%,60%,60%); stroke-linecap: round; stroke-width: 1; fill: rgb(60%,60%,60%); fill-rule: evenodd; fill-opacity: 0.5; stroke-opacity: 0.5;"/>
			<polygon points="44.00461 11.574, 47.50064 11.574, 51.87464 7.2, 47.50064 2.826, 44.00461 2.826" style="stroke: rgb(60%,60%,60%); stroke-linecap: round; stroke-width: 1; fill: rgb(60%,60%,60%); fill-rule: evenodd; fill-opacity: 0.5; stroke-opacity: 0.5;"/>
			<polygon points="63.32574 11.574, 94.05456 11.574, 98.42856 7.2, 94.05456 2.826, 63.32574 2.826" style="stroke: rgb(60%,60%,60%); stroke-linecap: round; stroke-width: 1; fill: rgb(60%,60%,60%); fill-rule: evenodd; fill-opacity: 0.5; stroke-opacity: 0.5;"/>
			<polygon points="110.1711 11.574, 119.6634 11.574, 124.0374 7.2, 119.6634 2.826, 110.1711 2.826" style="stroke: rgb(60%,60%,60%); stroke-linecap: round; stroke-width: 1; fill: rgb(60%,60%,60%); fill-rule: evenodd; fill-opacity: 0.5; stroke-opacity: 0.5;"/>
			<polygon points="123.8708 11.574, 188.0785 11.574, 192.4525 7.2, 188.0785 2.826, 123.8708 2.826" style="stroke: rgb(60%,60%,60%); stroke-linecap: round; stroke-width: 1; fill: rgb(60%,60%,60%); fill-rule: evenodd; fill-opacity: 0.5; stroke-opacity: 0.5;"/>
			<polygon points="98.59513 11.574, 99.13645 7.2, 98.59513 2.826" style="stroke: rgb(0%,0%,0%); stroke-linecap: round; stroke-width: 1; fill: rgb(0%,0%,0%); fill-rule: evenodd; fill-opacity: 0.5; stroke-opacity: 0.5;"/>
			<polygon points="109.1718 11.574, 108.6305 7.2, 109.1718 2.826" style="stroke: rgb(0%,0%,0%); stroke-linecap: round; stroke-width: 1; fill: rgb(0%,0%,0%); fill-rule: evenodd; fill-opacity: 0.5; stroke-opacity: 0.5;"/>
			<path d="M 192.452502,2.826 L 192.452502,11.574 Z" style="stroke: rgb(0%,0%,0%); stroke-linecap: butt; stroke-width: 1;"/>
			<path d="M 15.3144,7.2 L 192.452502,7.2 Z" style="stroke: rgb(0%,0%,0%); stroke-linecap: butt; stroke-width: 1;"/>
			<path d="M 15.3144,2.826 L 15.3144,11.574 Z" style="stroke: rgb(0%,0%,0%); stroke-linecap: butt; stroke-width: 1;"/>
			<g transform=" matrix(0.707107,0.707107,-0.707107,0.707107,15.3144,11.574)">
				<text style="font-family: Helvetica; font-size: 6px;fill: rgb(0%,0%,0%); stroke:none;" transform="translate(0,0) scale(1,-1)" x="0" y="0">-1</text>
			</g>
			<g transform=" matrix(0.707107,0.707107,-0.707107,0.707107,36.467704,11.574)">
				<text style="font-family: Helvetica; font-size: 6px;fill: rgb(0%,0%,0%); stroke:none;" transform="translate(0,0) scale(1,-1)" x="0" y="0">-1</text>
			</g>
			<g transform=" matrix(0.707107,0.707107,-0.707107,0.707107,44.00461,11.574)">
				<text style="font-family: Helvetica; font-size: 6px;fill: rgb(0%,0%,0%); stroke:none;" transform="translate(0,0) scale(1,-1)" x="0" y="0">-1</text>
			</g>
			<g transform=" matrix(0.707107,0.707107,-0.707107,0.707107,63.325738,11.574)">
				<text style="font-family: Helvetica; font-size: 6px;fill: rgb(0%,0%,0%); stroke:none;" transform="translate(0,0) scale(1,-1)" x="0" y="0">-1</text>
			</g>
			<g transform=" matrix(0.707107,0.707107,-0.707107,0.707107,110.171146,11.574)">
				<text style="font-family: Helvetica; font-size: 6px;fill: rgb(0%,0%,0%); stroke:none;" transform="translate(0,0) scale(1,-1)" x="0" y="0">-1</text>
			</g>
			<g transform=" matrix(0.707107,0.707107,-0.707107,0.707107,123.870825,11.574)">
				<text style="font-family: Helvetica; font-size: 6px;fill: rgb(0%,0%,0%); stroke:none;" transform="translate(0,0) scale(1,-1)" x="0" y="0">-1</text>
			</g>
			<g transform=" matrix(0.707107,0.707107,-0.707107,0.707107,98.595125,11.574)">
				<text style="font-family: Helvetica; font-size: 6px;fill: rgb(0%,0%,0%); stroke:none;" transform="translate(0,0) scale(1,-1)" x="0" y="0">IR_1</text>
			</g>
			<g transform=" matrix(0.707107,0.707107,-0.707107,0.707107,109.171777,2.826)">
				<text style="font-family: Helvetica; font-size: 6px;fill: rgb(0%,0%,0%); stroke:none;" transform="translate(0,0) scale(1,-1)" x="0" y="0">IR_2</text>
			</g>
		</g>
	</g>
</svg>
