<?xml version="1.0" encoding="utf-8"?>
<!DOCTYPE svg
  PUBLIC '-//W3C//DTD SVG 1.0//EN'
  'http://www.w3.org/TR/2001/REC-SVG-20010904/DTD/svg10.dtd'>
<svg fill-rule="evenodd" height="54.0" preserveAspectRatio="xMinYMin meet" version="1.0" viewBox="0 0 93 54" width="93.09599999999999" xmlns="http://www.w3.org/2000/svg" xmlns:xlink="http://www.w3.org/1999/xlink">
	<title>...</title>
	<desc>...</desc>
	<clipPath id="clip">
		<rect height="54.0" width="93.09599999999999" x="0" y="0"/>
	</clipPath>
	<g id="group" style="clip-path: url(#clip)" transform="scale(1,-1) translate(0,-54)">
		<g transform="">
			<polygon points="4.9783 7.6815, 44.25755 7.6815, 45.35105 6.588, 44.25755 5.4945, 4.9783 5.4945" style="stroke: rgb(0%,90%,20%); stroke-linecap: round; stroke-width: 1; fill: rgb(0%,90%,20%); fill-rule: evenodd; fill-opacity: 0.5; stroke-opacity: 0.5;"/>
			<polygon points="5.107699 7.6815, 5.114098 7.6815, 6.207598 6.588, 5.114098 5.4945, 5.107699 5.4945" style="stroke: rgb(0%,0%,0%); stroke-linecap: round; stroke-width: 1; fill: rgb(0%,0%,0%); fill-rule: evenodd; fill-opacity: 0.5; stroke-opacity: 0.5;"/>
			<polygon points="46.70975 7.6815, 46.70335 7.6815, 45.60985 6.588, 46.70335 5.4945, 46.70975 5.4945" style="stroke: rgb(0%,0%,0%); stroke-linecap: round; stroke-width: 1; fill: rgb(0%,0%,0%); fill-rule: evenodd; fill-opacity: 0.5; stroke-opacity: 0.5;"/>
			<polygon points="4.9783 10.5975, 78.03091 10.5975, 79.12441 9.504, 78.03091 8.4105, 4.9783 8.4105" style="stroke: rgb(0%,90%,20%); stroke-linecap: round; stroke-width: 1; fill: rgb(0%,90%,20%); fill-rule: evenodd; fill-opacity: 0.5; stroke-opacity: 0.5;"/>
			<polygon points="35.71076 10.5975, 36.68126 9.504, 35.71076 8.4105" style="stroke: rgb(0%,0%,0%); stroke-linecap: round; stroke-width: 1; fill: rgb(0%,0%,0%); fill-rule: evenodd; fill-opacity: 0.5; stroke-opacity: 0.5;"/>
			<polygon points="80.35371 10.5975, 79.38321 9.504, 80.35371 8.4105" style="stroke: rgb(0%,0%,0%); stroke-linecap: round; stroke-width: 1; fill: rgb(0%,0%,0%); fill-rule: evenodd; fill-opacity: 0.5; stroke-opacity: 0.5;"/>
			<polygon points="81.58301 13.5135, 48.90315 13.5135, 47.80965 12.42, 48.90315 11.3265, 81.58301 11.3265" style="stroke: rgb(0%,90%,20%); stroke-linecap: round; stroke-width: 1; fill: rgb(0%,90%,20%); fill-rule: evenodd; fill-opacity: 0.5; stroke-opacity: 0.5;"/>
			<polygon points="4.9783 13.5135, 5.114098 13.5135, 6.207598 12.42, 5.114098 11.3265, 4.9783 11.3265" style="stroke: rgb(0%,0%,0%); stroke-linecap: round; stroke-width: 1; fill: rgb(0%,0%,0%); fill-rule: evenodd; fill-opacity: 0.5; stroke-opacity: 0.5;"/>
			<polygon points="49.29775 13.5135, 49.16195 13.5135, 48.06845 12.42, 49.16195 11.3265, 49.29775 11.3265" style="stroke: rgb(0%,0%,0%); stroke-linecap: round; stroke-width: 1; fill: rgb(0%,0%,0%); fill-rule: evenodd; fill-opacity: 0.5; stroke-opacity: 0.5;"/>
			<polygon points="84.5592 16.4295, 6.0718 16.4295, 4.9783 15.336, 6.0718 14.2425, 84.5592 14.2425" style="stroke: rgb(0%,90%,20%); stroke-linecap: round; stroke-width: 1; fill: rgb(0%,90%,20%); fill-rule: evenodd; fill-opacity: 0.5; stroke-opacity: 0.5;"/>
			<polygon points="5.819399 16.4295, 6.854597 15.336, 5.819399 14.2425" style="stroke: rgb(0%,0%,0%); stroke-linecap: round; stroke-width: 1; fill: rgb(0%,0%,0%); fill-rule: evenodd; fill-opacity: 0.5; stroke-opacity: 0.5;"/>
			<polygon points="53.76204 16.4295, 52.72684 15.336, 53.76204 14.2425" style="stroke: rgb(0%,0%,0%); stroke-linecap: round; stroke-width: 1; fill: rgb(0%,0%,0%); fill-rule: evenodd; fill-opacity: 0.5; stroke-opacity: 0.5;"/>
			<polygon points="81.84181 19.3455, 49.55015 19.3455, 48.45665 18.252, 49.55015 17.1585, 81.84181 17.1585" style="stroke: rgb(0%,90%,20%); stroke-linecap: round; stroke-width: 1; fill: rgb(0%,90%,20%); fill-rule: evenodd; fill-opacity: 0.5; stroke-opacity: 0.5;"/>
			<polygon points="4.9783 19.3455, 5.761097 19.3455, 6.854597 18.252, 5.761097 17.1585, 4.9783 17.1585" style="stroke: rgb(0%,0%,0%); stroke-linecap: round; stroke-width: 1; fill: rgb(0%,0%,0%); fill-rule: evenodd; fill-opacity: 0.5; stroke-opacity: 0.5;"/>
			<polygon points="50.85054 19.3455, 50.06775 19.3455, 48.97425 18.252, 50.06775 17.1585, 50.85054 17.1585" style="stroke: rgb(0%,0%,0%); stroke-linecap: round; stroke-width: 1; fill: rgb(0%,0%,0%); fill-rule: evenodd; fill-opacity: 0.5; stroke-opacity: 0.5;"/>
			<polygon points="86.3708 22.2615, 7.689298 22.2615, 6.595798 21.168, 7.689298 20.0745, 86.3708 20.0745" style="stroke: rgb(0%,90%,20%); stroke-linecap: round; stroke-width: 1; fill: rgb(0%,90%,20%); fill-rule: evenodd; fill-opacity: 0.5; stroke-opacity: 0.5;"/>
			<polygon points="4.9783 22.2615, 5.178798 22.2615, 6.272298 21.168, 5.178798 20.0745, 4.9783 20.0745" style="stroke: rgb(0%,0%,0%); stroke-linecap: round; stroke-width: 1; fill: rgb(0%,0%,0%); fill-rule: evenodd; fill-opacity: 0.5; stroke-opacity: 0.5;"/>
			<polygon points="53.11504 22.2615, 52.91454 22.2615, 51.82104 21.168, 52.91454 20.0745, 53.11504 20.0745" style="stroke: rgb(0%,0%,0%); stroke-linecap: round; stroke-width: 1; fill: rgb(0%,0%,0%); fill-rule: evenodd; fill-opacity: 0.5; stroke-opacity: 0.5;"/>
			<polygon points="45.73925 25.1775, 16.74729 25.1775, 15.65379 24.084, 16.74729 22.9905, 45.73925 22.9905" style="stroke: rgb(0%,90%,20%); stroke-linecap: round; stroke-width: 1; fill: rgb(0%,90%,20%); fill-rule: evenodd; fill-opacity: 0.5; stroke-opacity: 0.5;"/>
			<polygon points="4.9783 25.1775, 5.948798 24.084, 4.9783 22.9905" style="stroke: rgb(0%,0%,0%); stroke-linecap: round; stroke-width: 1; fill: rgb(0%,0%,0%); fill-rule: evenodd; fill-opacity: 0.5; stroke-opacity: 0.5;"/>
			<polygon points="52.66214 25.1775, 51.69164 24.084, 52.66214 22.9905" style="stroke: rgb(0%,0%,0%); stroke-linecap: round; stroke-width: 1; fill: rgb(0%,0%,0%); fill-rule: evenodd; fill-opacity: 0.5; stroke-opacity: 0.5;"/>
			<polygon points="50.59175 28.0935, 7.430498 28.0935, 6.336998 27, 7.430498 25.9065, 50.59175 25.9065" style="stroke: rgb(0%,90%,20%); stroke-linecap: round; stroke-width: 1; fill: rgb(0%,90%,20%); fill-rule: evenodd; fill-opacity: 0.5; stroke-opacity: 0.5;"/>
			<polygon points="4.9783 28.0935, 6.013498 27, 4.9783 25.9065" style="stroke: rgb(0%,0%,0%); stroke-linecap: round; stroke-width: 1; fill: rgb(0%,0%,0%); fill-rule: evenodd; fill-opacity: 0.5; stroke-opacity: 0.5;"/>
			<polygon points="49.88005 28.0935, 48.84485 27, 49.88005 25.9065" style="stroke: rgb(0%,0%,0%); stroke-linecap: round; stroke-width: 1; fill: rgb(0%,0%,0%); fill-rule: evenodd; fill-opacity: 0.5; stroke-opacity: 0.5;"/>
			<polygon points="33.44627 31.0095, 7.365798 31.0095, 6.272298 29.916, 7.365798 28.8225, 33.44627 28.8225" style="stroke: rgb(0%,90%,20%); stroke-linecap: round; stroke-width: 1; fill: rgb(0%,90%,20%); fill-rule: evenodd; fill-opacity: 0.5; stroke-opacity: 0.5;"/>
			<polygon points="4.9783 31.0095, 4.984698 31.0095, 6.078198 29.916, 4.984698 28.8225, 4.9783 28.8225" style="stroke: rgb(0%,0%,0%); stroke-linecap: round; stroke-width: 1; fill: rgb(0%,0%,0%); fill-rule: evenodd; fill-opacity: 0.5; stroke-opacity: 0.5;"/>
			<polygon points="44.12175 31.0095, 44.11535 31.0095, 43.02185 29.916, 44.11535 28.8225, 44.12175 28.8225" style="stroke: rgb(0%,0%,0%); stroke-linecap: round; stroke-width: 1; fill: rgb(0%,0%,0%); fill-rule: evenodd; fill-opacity: 0.5; stroke-opacity: 0.5;"/>
			<polygon points="50.85054 33.9255, 7.301098 33.9255, 6.207598 32.832, 7.301098 31.7385, 50.85054 31.7385" style="stroke: rgb(0%,90%,20%); stroke-linecap: round; stroke-width: 1; fill: rgb(0%,90%,20%); fill-rule: evenodd; fill-opacity: 0.5; stroke-opacity: 0.5;"/>
			<polygon points="4.9783 33.9255, 6.013498 32.832, 4.9783 31.7385" style="stroke: rgb(0%,0%,0%); stroke-linecap: round; stroke-width: 1; fill: rgb(0%,0%,0%); fill-rule: evenodd; fill-opacity: 0.5; stroke-opacity: 0.5;"/>
			<polygon points="47.48615 33.9255, 46.45095 32.832, 47.48615 31.7385" style="stroke: rgb(0%,0%,0%); stroke-linecap: round; stroke-width: 1; fill: rgb(0%,0%,0%); fill-rule: evenodd; fill-opacity: 0.5; stroke-opacity: 0.5;"/>
			<polygon points="78.80091 36.8415, 45.92695 36.8415, 44.83345 35.748, 45.92695 34.6545, 78.80091 34.6545" style="stroke: rgb(0%,90%,20%); stroke-linecap: round; stroke-width: 1; fill: rgb(0%,90%,20%); fill-rule: evenodd; fill-opacity: 0.5; stroke-opacity: 0.5;"/>
			<polygon points="4.9783 36.8415, 5.114098 36.8415, 6.207598 35.748, 5.114098 34.6545, 4.9783 34.6545" style="stroke: rgb(0%,0%,0%); stroke-linecap: round; stroke-width: 1; fill: rgb(0%,0%,0%); fill-rule: evenodd; fill-opacity: 0.5; stroke-opacity: 0.5;"/>
			<polygon points="46.25685 36.8415, 46.12105 36.8415, 45.02755 35.748, 46.12105 34.6545, 46.25685 34.6545" style="stroke: rgb(0%,0%,0%); stroke-linecap: round; stroke-width: 1; fill: rgb(0%,0%,0%); fill-rule: evenodd; fill-opacity: 0.5; stroke-opacity: 0.5;"/>
			<polygon points="74.53072 39.7575, 7.495198 39.7575, 6.401698 38.664, 7.495198 37.5705, 74.53072 37.5705" style="stroke: rgb(0%,90%,20%); stroke-linecap: round; stroke-width: 1; fill: rgb(0%,90%,20%); fill-rule: evenodd; fill-opacity: 0.5; stroke-opacity: 0.5;"/>
			<polygon points="4.9783 39.7575, 5.049398 39.7575, 6.142898 38.664, 5.049398 37.5705, 4.9783 37.5705" style="stroke: rgb(0%,0%,0%); stroke-linecap: round; stroke-width: 1; fill: rgb(0%,0%,0%); fill-rule: evenodd; fill-opacity: 0.5; stroke-opacity: 0.5;"/>
			<polygon points="42.24546 39.7575, 42.17436 39.7575, 41.08086 38.664, 42.17436 37.5705, 42.24546 37.5705" style="stroke: rgb(0%,0%,0%); stroke-linecap: round; stroke-width: 1; fill: rgb(0%,0%,0%); fill-rule: evenodd; fill-opacity: 0.5; stroke-opacity: 0.5;"/>
			<polygon points="83.20051 42.6735, 49.16195 42.6735, 48.06845 41.58, 49.16195 40.4865, 83.20051 40.4865" style="stroke: rgb(0%,90%,20%); stroke-linecap: round; stroke-width: 1; fill: rgb(0%,90%,20%); fill-rule: evenodd; fill-opacity: 0.5; stroke-opacity: 0.5;"/>
			<polygon points="4.9783 42.6735, 4.984698 42.6735, 6.078198 41.58, 4.984698 40.4865, 4.9783 40.4865" style="stroke: rgb(0%,0%,0%); stroke-linecap: round; stroke-width: 1; fill: rgb(0%,0%,0%); fill-rule: evenodd; fill-opacity: 0.5; stroke-opacity: 0.5;"/>
			<polygon points="49.68595 42.6735, 49.67955 42.6735, 48.58605 41.58, 49.67955 40.4865, 49.68595 40.4865" style="stroke: rgb(0%,0%,0%); stroke-linecap: round; stroke-width: 1; fill: rgb(0%,0%,0%); fill-rule: evenodd; fill-opacity: 0.5; stroke-opacity: 0.5;"/>
			<polygon points="87.9883 45.5895, 49.67955 45.5895, 48.58605 44.496, 49.67955 43.4025, 87.9883 43.4025" style="stroke: rgb(0%,90%,20%); stroke-linecap: round; stroke-width: 1; fill: rgb(0%,90%,20%); fill-rule: evenodd; fill-opacity: 0.5; stroke-opacity: 0.5;"/>
			<polygon points="4.9783 45.5895, 6.013498 44.496, 4.9783 43.4025" style="stroke: rgb(0%,0%,0%); stroke-linecap: round; stroke-width: 1; fill: rgb(0%,0%,0%); fill-rule: evenodd; fill-opacity: 0.5; stroke-opacity: 0.5;"/>
			<polygon points="52.92094 45.5895, 51.88574 44.496, 52.92094 43.4025" style="stroke: rgb(0%,0%,0%); stroke-linecap: round; stroke-width: 1; fill: rgb(0%,0%,0%); fill-rule: evenodd; fill-opacity: 0.5; stroke-opacity: 0.5;"/>
			<polygon points="76.98931 48.5055, 44.30945 48.5055, 43.21595 47.412, 44.30945 46.3185, 76.98931 46.3185" style="stroke: rgb(0%,90%,20%); stroke-linecap: round; stroke-width: 1; fill: rgb(0%,90%,20%); fill-rule: evenodd; fill-opacity: 0.5; stroke-opacity: 0.5;"/>
			<polygon points="4.9783 48.5055, 5.178798 48.5055, 6.272298 47.412, 5.178798 46.3185, 4.9783 46.3185" style="stroke: rgb(0%,0%,0%); stroke-linecap: round; stroke-width: 1; fill: rgb(0%,0%,0%); fill-rule: evenodd; fill-opacity: 0.5; stroke-opacity: 0.5;"/>
			<polygon points="44.76875 48.5055, 44.56825 48.5055, 43.47475 47.412, 44.56825 46.3185, 44.76875 46.3185" style="stroke: rgb(0%,0%,0%); stroke-linecap: round; stroke-width: 1; fill: rgb(0%,0%,0%); fill-rule: evenodd; fill-opacity: 0.5; stroke-opacity: 0.5;"/>
			<path d="M 47.033249,5.4945 L 47.033249,7.6815 Z" style="stroke: rgb(0%,0%,0%); stroke-linecap: butt; stroke-width: 1;"/>
			<path d="M 4.6548,6.588 L 47.033249,6.588 Z" style="stroke: rgb(0%,0%,0%); stroke-linecap: butt; stroke-width: 1;"/>
			<path d="M 4.6548,5.4945 L 4.6548,7.6815 Z" style="stroke: rgb(0%,0%,0%); stroke-linecap: butt; stroke-width: 1;"/>
			<path d="M 80.677209,8.4105 L 80.677209,10.5975 Z" style="stroke: rgb(0%,0%,0%); stroke-linecap: butt; stroke-width: 1;"/>
			<path d="M 4.6548,9.504 L 80.677209,9.504 Z" style="stroke: rgb(0%,0%,0%); stroke-linecap: butt; stroke-width: 1;"/>
			<path d="M 4.6548,8.4105 L 4.6548,10.5975 Z" style="stroke: rgb(0%,0%,0%); stroke-linecap: butt; stroke-width: 1;"/>
			<path d="M 81.906508,11.3265 L 81.906508,13.5135 Z" style="stroke: rgb(0%,0%,0%); stroke-linecap: butt; stroke-width: 1;"/>
			<path d="M 4.6548,12.42 L 81.906508,12.42 Z" style="stroke: rgb(0%,0%,0%); stroke-linecap: butt; stroke-width: 1;"/>
			<path d="M 4.6548,11.3265 L 4.6548,13.5135 Z" style="stroke: rgb(0%,0%,0%); stroke-linecap: butt; stroke-width: 1;"/>
			<path d="M 84.882704,14.2425 L 84.882704,16.4295 Z" style="stroke: rgb(0%,0%,0%); stroke-linecap: butt; stroke-width: 1;"/>
			<path d="M 4.6548,15.336 L 84.882704,15.336 Z" style="stroke: rgb(0%,0%,0%); stroke-linecap: butt; stroke-width: 1;"/>
			<path d="M 4.6548,14.2425 L 4.6548,16.4295 Z" style="stroke: rgb(0%,0%,0%); stroke-linecap: butt; stroke-width: 1;"/>
			<path d="M 82.165307,17.1585 L 82.165307,19.3455 Z" style="stroke: rgb(0%,0%,0%); stroke-linecap: butt; stroke-width: 1;"/>
			<path d="M 4.6548,18.252 L 82.165307,18.252 Z" style="stroke: rgb(0%,0%,0%); stroke-linecap: butt; stroke-width: 1;"/>
			<path d="M 4.6548,17.1585 L 4.6548,19.3455 Z" style="stroke: rgb(0%,0%,0%); stroke-linecap: butt; stroke-width: 1;"/>
			<path d="M 86.694302,20.0745 L 86.694302,22.2615 Z" style="stroke: rgb(0%,0%,0%); stroke-linecap: butt; stroke-width: 1;"/>
			<path d="M 4.6548,21.168 L 86.694302,21.168 Z" style="stroke: rgb(0%,0%,0%); stroke-linecap: butt; stroke-width: 1;"/>
			<path d="M 4.6548,20.0745 L 4.6548,22.2615 Z" style="stroke: rgb(0%,0%,0%); stroke-linecap: butt; stroke-width: 1;"/>
			<path d="M 52.985642,22.9905 L 52.985642,25.1775 Z" style="stroke: rgb(0%,0%,0%); stroke-linecap: butt; stroke-width: 1;"/>
			<path d="M 4.6548,24.084 L 52.985642,24.084 Z" style="stroke: rgb(0%,0%,0%); stroke-linecap: butt; stroke-width: 1;"/>
			<path d="M 4.6548,22.9905 L 4.6548,25.1775 Z" style="stroke: rgb(0%,0%,0%); stroke-linecap: butt; stroke-width: 1;"/>
			<path d="M 50.915245,25.9065 L 50.915245,28.0935 Z" style="stroke: rgb(0%,0%,0%); stroke-linecap: butt; stroke-width: 1;"/>
			<path d="M 4.6548,27 L 50.915245,27 Z" style="stroke: rgb(0%,0%,0%); stroke-linecap: butt; stroke-width: 1;"/>
			<path d="M 4.6548,25.9065 L 4.6548,28.0935 Z" style="stroke: rgb(0%,0%,0%); stroke-linecap: butt; stroke-width: 1;"/>
			<path d="M 44.445253,28.8225 L 44.445253,31.0095 Z" style="stroke: rgb(0%,0%,0%); stroke-linecap: butt; stroke-width: 1;"/>
			<path d="M 4.6548,29.916 L 44.445253,29.916 Z" style="stroke: rgb(0%,0%,0%); stroke-linecap: butt; stroke-width: 1;"/>
			<path d="M 4.6548,28.8225 L 4.6548,31.0095 Z" style="stroke: rgb(0%,0%,0%); stroke-linecap: butt; stroke-width: 1;"/>
			<path d="M 51.174044,31.7385 L 51.174044,33.9255 Z" style="stroke: rgb(0%,0%,0%); stroke-linecap: butt; stroke-width: 1;"/>
			<path d="M 4.6548,32.832 L 51.174044,32.832 Z" style="stroke: rgb(0%,0%,0%); stroke-linecap: butt; stroke-width: 1;"/>
			<path d="M 4.6548,31.7385 L 4.6548,33.9255 Z" style="stroke: rgb(0%,0%,0%); stroke-linecap: butt; stroke-width: 1;"/>
			<path d="M 79.124411,34.6545 L 79.124411,36.8415 Z" style="stroke: rgb(0%,0%,0%); stroke-linecap: butt; stroke-width: 1;"/>
			<path d="M 4.6548,35.748 L 79.124411,35.748 Z" style="stroke: rgb(0%,0%,0%); stroke-linecap: butt; stroke-width: 1;"/>
			<path d="M 4.6548,34.6545 L 4.6548,36.8415 Z" style="stroke: rgb(0%,0%,0%); stroke-linecap: butt; stroke-width: 1;"/>
			<path d="M 74.854216,37.5705 L 74.854216,39.7575 Z" style="stroke: rgb(0%,0%,0%); stroke-linecap: butt; stroke-width: 1;"/>
			<path d="M 4.6548,38.664 L 74.854216,38.664 Z" style="stroke: rgb(0%,0%,0%); stroke-linecap: butt; stroke-width: 1;"/>
			<path d="M 4.6548,37.5705 L 4.6548,39.7575 Z" style="stroke: rgb(0%,0%,0%); stroke-linecap: butt; stroke-width: 1;"/>
			<path d="M 83.524006,40.4865 L 83.524006,42.6735 Z" style="stroke: rgb(0%,0%,0%); stroke-linecap: butt; stroke-width: 1;"/>
			<path d="M 4.6548,41.58 L 83.524006,41.58 Z" style="stroke: rgb(0%,0%,0%); stroke-linecap: butt; stroke-width: 1;"/>
			<path d="M 4.6548,40.4865 L 4.6548,42.6735 Z" style="stroke: rgb(0%,0%,0%); stroke-linecap: butt; stroke-width: 1;"/>
			<path d="M 88.3118,43.4025 L 88.3118,45.5895 Z" style="stroke: rgb(0%,0%,0%); stroke-linecap: butt; stroke-width: 1;"/>
			<path d="M 4.6548,44.496 L 88.3118,44.496 Z" style="stroke: rgb(0%,0%,0%); stroke-linecap: butt; stroke-width: 1;"/>
			<path d="M 4.6548,43.4025 L 4.6548,45.5895 Z" style="stroke: rgb(0%,0%,0%); stroke-linecap: butt; stroke-width: 1;"/>
			<path d="M 77.312813,46.3185 L 77.312813,48.5055 Z" style="stroke: rgb(0%,0%,0%); stroke-linecap: butt; stroke-width: 1;"/>
			<path d="M 4.6548,47.412 L 77.312813,47.412 Z" style="stroke: rgb(0%,0%,0%); stroke-linecap: butt; stroke-width: 1;"/>
			<path d="M 4.6548,46.3185 L 4.6548,48.5055 Z" style="stroke: rgb(0%,0%,0%); stroke-linecap: butt; stroke-width: 1;"/>
			<g transform=" matrix(0.707107,0.707107,-0.707107,0.707107,4.9783,7.6815)">
				<text style="font-family: Helvetica; font-size: 6px;fill: rgb(0%,0%,0%); stroke:none;" transform="translate(0,0) scale(1,-1)" x="0" y="0"></text>
			</g>
			<g transform=" matrix(0.707107,0.707107,-0.707107,0.707107,5.107699,7.6815)">
				<text style="font-family: Helvetica; font-size: 6px;fill: rgb(0%,0%,0%); stroke:none;" transform="translate(0,0) scale(1,-1)" x="0" y="0"></text>
			</g>
			<g transform=" matrix(0.707107,0.707107,-0.707107,0.707107,46.70975,5.4945)">
				<text style="font-family: Helvetica; font-size: 6px;fill: rgb(0%,0%,0%); stroke:none;" transform="translate(0,0) scale(1,-1)" x="0" y="0"></text>
			</g>
			<g transform=" matrix(0.707107,0.707107,-0.707107,0.707107,4.9783,10.5975)">
				<text style="font-family: Helvetica; font-size: 6px;fill: rgb(0%,0%,0%); stroke:none;" transform="translate(0,0) scale(1,-1)" x="0" y="0"></text>
			</g>
			<g transform=" matrix(0.707107,0.707107,-0.707107,0.707107,35.710763,10.5975)">
				<text style="font-family: Helvetica; font-size: 6px;fill: rgb(0%,0%,0%); stroke:none;" transform="translate(0,0) scale(1,-1)" x="0" y="0"></text>
			</g>
			<g transform=" matrix(0.707107,0.707107,-0.707107,0.707107,80.35371,8.4105)">
				<text style="font-family: Helvetica; font-size: 6px;fill: rgb(0%,0%,0%); stroke:none;" transform="translate(0,0) scale(1,-1)" x="0" y="0"></text>
			</g>
			<g transform=" matrix(0.707107,0.707107,-0.707107,0.707107,81.583008,11.3265)">
				<text style="font-family: Helvetica; font-size: 6px;fill: rgb(0%,0%,0%); stroke:none;" transform="translate(0,0) scale(1,-1)" x="0" y="0"></text>
			</g>
			<g transform=" matrix(0.707107,0.707107,-0.707107,0.707107,4.9783,13.5135)">
				<text style="font-family: Helvetica; font-size: 6px;fill: rgb(0%,0%,0%); stroke:none;" transform="translate(0,0) scale(1,-1)" x="0" y="0"></text>
			</g>
			<g transform=" matrix(0.707107,0.707107,-0.707107,0.707107,49.297747,11.3265)">
				<text style="font-family: Helvetica; font-size: 6px;fill: rgb(0%,0%,0%); stroke:none;" transform="translate(0,0) scale(1,-1)" x="0" y="0"></text>
			</g>
			<g transform=" matrix(0.707107,0.707107,-0.707107,0.707107,84.559205,14.2425)">
				<text style="font-family: Helvetica; font-size: 6px;fill: rgb(0%,0%,0%); stroke:none;" transform="translate(0,0) scale(1,-1)" x="0" y="0"></text>
			</g>
			<g transform=" matrix(0.707107,0.707107,-0.707107,0.707107,5.819399,16.4295)">
				<text style="font-family: Helvetica; font-size: 6px;fill: rgb(0%,0%,0%); stroke:none;" transform="translate(0,0) scale(1,-1)" x="0" y="0"></text>
			</g>
			<g transform=" matrix(0.707107,0.707107,-0.707107,0.707107,53.762041,14.2425)">
				<text style="font-family: Helvetica; font-size: 6px;fill: rgb(0%,0%,0%); stroke:none;" transform="translate(0,0) scale(1,-1)" x="0" y="0"></text>
			</g>
			<g transform=" matrix(0.707107,0.707107,-0.707107,0.707107,81.841808,17.1585)">
				<text style="font-family: Helvetica; font-size: 6px;fill: rgb(0%,0%,0%); stroke:none;" transform="translate(0,0) scale(1,-1)" x="0" y="0"></text>
			</g>
			<g transform=" matrix(0.707107,0.707107,-0.707107,0.707107,4.9783,19.3455)">
				<text style="font-family: Helvetica; font-size: 6px;fill: rgb(0%,0%,0%); stroke:none;" transform="translate(0,0) scale(1,-1)" x="0" y="0"></text>
			</g>
			<g transform=" matrix(0.707107,0.707107,-0.707107,0.707107,50.850545,17.1585)">
				<text style="font-family: Helvetica; font-size: 6px;fill: rgb(0%,0%,0%); stroke:none;" transform="translate(0,0) scale(1,-1)" x="0" y="0"></text>
			</g>
			<g transform=" matrix(0.707107,0.707107,-0.707107,0.707107,86.370802,20.0745)">
				<text style="font-family: Helvetica; font-size: 6px;fill: rgb(0%,0%,0%); stroke:none;" transform="translate(0,0) scale(1,-1)" x="0" y="0"></text>
			</g>
			<g transform=" matrix(0.707107,0.707107,-0.707107,0.707107,4.9783,22.2615)">
				<text style="font-family: Helvetica; font-size: 6px;fill: rgb(0%,0%,0%); stroke:none;" transform="translate(0,0) scale(1,-1)" x="0" y="0"></text>
			</g>
			<g transform=" matrix(0.707107,0.707107,-0.707107,0.707107,53.115042,20.0745)">
				<text style="font-family: Helvetica; font-size: 6px;fill: rgb(0%,0%,0%); stroke:none;" transform="translate(0,0) scale(1,-1)" x="0" y="0"></text>
			</g>
			<g transform=" matrix(0.707107,0.707107,-0.707107,0.707107,45.739251,22.9905)">
				<text style="font-family: Helvetica; font-size: 6px;fill: rgb(0%,0%,0%); stroke:none;" transform="translate(0,0) scale(1,-1)" x="0" y="0"></text>
			</g>
			<g transform=" matrix(0.707107,0.707107,-0.707107,0.707107,4.9783,25.1775)">
				<text style="font-family: Helvetica; font-size: 6px;fill: rgb(0%,0%,0%); stroke:none;" transform="translate(0,0) scale(1,-1)" x="0" y="0"></text>
			</g>
			<g transform=" matrix(0.707107,0.707107,-0.707107,0.707107,52.662143,22.9905)">
				<text style="font-family: Helvetica; font-size: 6px;fill: rgb(0%,0%,0%); stroke:none;" transform="translate(0,0) scale(1,-1)" x="0" y="0"></text>
			</g>
			<g transform=" matrix(0.707107,0.707107,-0.707107,0.707107,50.591745,25.9065)">
				<text style="font-family: Helvetica; font-size: 6px;fill: rgb(0%,0%,0%); stroke:none;" transform="translate(0,0) scale(1,-1)" x="0" y="0"></text>
			</g>
			<g transform=" matrix(0.707107,0.707107,-0.707107,0.707107,4.9783,28.0935)">
				<text style="font-family: Helvetica; font-size: 6px;fill: rgb(0%,0%,0%); stroke:none;" transform="translate(0,0) scale(1,-1)" x="0" y="0"></text>
			</g>
			<g transform=" matrix(0.707107,0.707107,-0.707107,0.707107,49.880046,25.9065)">
				<text style="font-family: Helvetica; font-size: 6px;fill: rgb(0%,0%,0%); stroke:none;" transform="translate(0,0) scale(1,-1)" x="0" y="0"></text>
			</g>
			<g transform=" matrix(0.707107,0.707107,-0.707107,0.707107,33.446266,28.8225)">
				<text style="font-family: Helvetica; font-size: 6px;fill: rgb(0%,0%,0%); stroke:none;" transform="translate(0,0) scale(1,-1)" x="0" y="0"></text>
			</g>
			<g transform=" matrix(0.707107,0.707107,-0.707107,0.707107,4.9783,31.0095)">
				<text style="font-family: Helvetica; font-size: 6px;fill: rgb(0%,0%,0%); stroke:none;" transform="translate(0,0) scale(1,-1)" x="0" y="0"></text>
			</g>
			<g transform=" matrix(0.707107,0.707107,-0.707107,0.707107,44.121753,28.8225)">
				<text style="font-family: Helvetica; font-size: 6px;fill: rgb(0%,0%,0%); stroke:none;" transform="translate(0,0) scale(1,-1)" x="0" y="0"></text>
			</g>
			<g transform=" matrix(0.707107,0.707107,-0.707107,0.707107,50.850545,31.7385)">
				<text style="font-family: Helvetica; font-size: 6px;fill: rgb(0%,0%,0%); stroke:none;" transform="translate(0,0) scale(1,-1)" x="0" y="0"></text>
			</g>
			<g transform=" matrix(0.707107,0.707107,-0.707107,0.707107,4.9783,33.9255)">
				<text style="font-family: Helvetica; font-size: 6px;fill: rgb(0%,0%,0%); stroke:none;" transform="translate(0,0) scale(1,-1)" x="0" y="0"></text>
			</g>
			<g transform=" matrix(0.707107,0.707107,-0.707107,0.707107,47.486149,31.7385)">
				<text style="font-family: Helvetica; font-size: 6px;fill: rgb(0%,0%,0%); stroke:none;" transform="translate(0,0) scale(1,-1)" x="0" y="0"></text>
			</g>
			<g transform=" matrix(0.707107,0.707107,-0.707107,0.707107,78.800912,34.6545)">
				<text style="font-family: Helvetica; font-size: 6px;fill: rgb(0%,0%,0%); stroke:none;" transform="translate(0,0) scale(1,-1)" x="0" y="0"></text>
			</g>
			<g transform=" matrix(0.707107,0.707107,-0.707107,0.707107,4.9783,36.8415)">
				<text style="font-family: Helvetica; font-size: 6px;fill: rgb(0%,0%,0%); stroke:none;" transform="translate(0,0) scale(1,-1)" x="0" y="0"></text>
			</g>
			<g transform=" matrix(0.707107,0.707107,-0.707107,0.707107,46.25685,34.6545)">
				<text style="font-family: Helvetica; font-size: 6px;fill: rgb(0%,0%,0%); stroke:none;" transform="translate(0,0) scale(1,-1)" x="0" y="0"></text>
			</g>
			<g transform=" matrix(0.707107,0.707107,-0.707107,0.707107,74.530717,37.5705)">
				<text style="font-family: Helvetica; font-size: 6px;fill: rgb(0%,0%,0%); stroke:none;" transform="translate(0,0) scale(1,-1)" x="0" y="0"></text>
			</g>
			<g transform=" matrix(0.707107,0.707107,-0.707107,0.707107,4.9783,39.7575)">
				<text style="font-family: Helvetica; font-size: 6px;fill: rgb(0%,0%,0%); stroke:none;" transform="translate(0,0) scale(1,-1)" x="0" y="0"></text>
			</g>
			<g transform=" matrix(0.707107,0.707107,-0.707107,0.707107,42.245455,37.5705)">
				<text style="font-family: Helvetica; font-size: 6px;fill: rgb(0%,0%,0%); stroke:none;" transform="translate(0,0) scale(1,-1)" x="0" y="0"></text>
			</g>
			<g transform=" matrix(0.707107,0.707107,-0.707107,0.707107,83.200506,40.4865)">
				<text style="font-family: Helvetica; font-size: 6px;fill: rgb(0%,0%,0%); stroke:none;" transform="translate(0,0) scale(1,-1)" x="0" y="0"></text>
			</g>
			<g transform=" matrix(0.707107,0.707107,-0.707107,0.707107,4.9783,42.6735)">
				<text style="font-family: Helvetica; font-size: 6px;fill: rgb(0%,0%,0%); stroke:none;" transform="translate(0,0) scale(1,-1)" x="0" y="0"></text>
			</g>
			<g transform=" matrix(0.707107,0.707107,-0.707107,0.707107,49.685946,40.4865)">
				<text style="font-family: Helvetica; font-size: 6px;fill: rgb(0%,0%,0%); stroke:none;" transform="translate(0,0) scale(1,-1)" x="0" y="0"></text>
			</g>
			<g transform=" matrix(0.707107,0.707107,-0.707107,0.707107,87.988301,43.4025)">
				<text style="font-family: Helvetica; font-size: 6px;fill: rgb(0%,0%,0%); stroke:none;" transform="translate(0,0) scale(1,-1)" x="0" y="0"></text>
			</g>
			<g transform=" matrix(0.707107,0.707107,-0.707107,0.707107,4.9783,45.5895)">
				<text style="font-family: Helvetica; font-size: 6px;fill: rgb(0%,0%,0%); stroke:none;" transform="translate(0,0) scale(1,-1)" x="0" y="0"></text>
			</g>
			<g transform=" matrix(0.707107,0.707107,-0.707107,0.707107,52.920942,43.4025)">
				<text style="font-family: Helvetica; font-size: 6px;fill: rgb(0%,0%,0%); stroke:none;" transform="translate(0,0) scale(1,-1)" x="0" y="0"></text>
			</g>
			<g transform=" matrix(0.707107,0.707107,-0.707107,0.707107,76.989314,46.3185)">
				<text style="font-family: Helvetica; font-size: 6px;fill: rgb(0%,0%,0%); stroke:none;" transform="translate(0,0) scale(1,-1)" x="0" y="0"></text>
			</g>
			<g transform=" matrix(0.707107,0.707107,-0.707107,0.707107,4.9783,48.5055)">
				<text style="font-family: Helvetica; font-size: 6px;fill: rgb(0%,0%,0%); stroke:none;" transform="translate(0,0) scale(1,-1)" x="0" y="0"></text>
			</g>
			<g transform=" matrix(0.707107,0.707107,-0.707107,0.707107,44.768752,46.3185)">
				<text style="font-family: Helvetica; font-size: 6px;fill: rgb(0%,0%,0%); stroke:none;" transform="translate(0,0) scale(1,-1)" x="0" y="0"></text>
			</g>
		</g>
	</g>
</svg>
