<?xml version="1.0" encoding="utf-8"?>
<!DOCTYPE svg
  PUBLIC '-//W3C//DTD SVG 1.0//EN'
  'http://www.w3.org/TR/2001/REC-SVG-20010904/DTD/svg10.dtd'>
<svg fill-rule="evenodd" height="57.6" preserveAspectRatio="xMinYMin meet" version="1.0" viewBox="0 0 93 57" width="93.816" xmlns="http://www.w3.org/2000/svg" xmlns:xlink="http://www.w3.org/1999/xlink">
	<title>...</title>
	<desc>...</desc>
	<clipPath id="clip">
		<rect height="57.6" width="93.816" x="0" y="0"/>
	</clipPath>
	<g id="group" style="clip-path: url(#clip)" transform="scale(1,-1) translate(0,-57)">
		<g transform="">
			<polygon points="73.85584 8.0235, 72.36131 8.0235, 71.26781 6.93, 72.36131 5.8365, 73.85584 5.8365" style="stroke: rgb(100%,0%,20%); stroke-linecap: round; stroke-width: 1; fill: rgb(100%,0%,20%); fill-rule: evenodd; fill-opacity: 0.5; stroke-opacity: 0.5;"/>
			<polygon points="67.90337 8.0235, 6.107803 8.0235, 5.014303 6.93, 6.107803 5.8365, 67.90337 5.8365" style="stroke: rgb(0%,40%,60%); stroke-linecap: round; stroke-width: 1; fill: rgb(0%,40%,60%); fill-rule: evenodd; fill-opacity: 0.5; stroke-opacity: 0.5;"/>
			<polygon points="69.32679 8.0235, 69.5273 8.0235, 70.6208 6.93, 69.5273 5.8365, 69.32679 5.8365" style="stroke: rgb(0%,0%,0%); stroke-linecap: round; stroke-width: 1; fill: rgb(0%,0%,0%); fill-rule: evenodd; fill-opacity: 0.5; stroke-opacity: 0.5;"/>
			<polygon points="88.08999 8.0235, 87.88948 8.0235, 86.79598 6.93, 87.88948 5.8365, 88.08999 5.8365" style="stroke: rgb(0%,0%,0%); stroke-linecap: round; stroke-width: 1; fill: rgb(0%,0%,0%); fill-rule: evenodd; fill-opacity: 0.5; stroke-opacity: 0.5;"/>
			<polygon points="73.53233 10.9395, 72.03781 10.9395, 70.94431 9.846, 72.03781 8.7525, 73.53233 8.7525" style="stroke: rgb(100%,0%,20%); stroke-linecap: round; stroke-width: 1; fill: rgb(100%,0%,20%); fill-rule: evenodd; fill-opacity: 0.5; stroke-opacity: 0.5;"/>
			<polygon points="67.51517 10.9395, 6.107803 10.9395, 5.014303 9.846, 6.107803 8.7525, 67.51517 8.7525" style="stroke: rgb(0%,40%,60%); stroke-linecap: round; stroke-width: 1; fill: rgb(0%,40%,60%); fill-rule: evenodd; fill-opacity: 0.5; stroke-opacity: 0.5;"/>
			<polygon points="68.93858 10.9395, 69.1391 10.9395, 70.2326 9.846, 69.1391 8.7525, 68.93858 8.7525" style="stroke: rgb(0%,0%,0%); stroke-linecap: round; stroke-width: 1; fill: rgb(0%,0%,0%); fill-rule: evenodd; fill-opacity: 0.5; stroke-opacity: 0.5;"/>
			<polygon points="87.63708 10.9395, 87.43657 10.9395, 86.34307 9.846, 87.43657 8.7525, 87.63708 8.7525" style="stroke: rgb(0%,0%,0%); stroke-linecap: round; stroke-width: 1; fill: rgb(0%,0%,0%); fill-rule: evenodd; fill-opacity: 0.5; stroke-opacity: 0.5;"/>
			<polygon points="73.98524 13.8555, 72.49071 13.8555, 71.39721 12.762, 72.49071 11.6685, 73.98524 11.6685" style="stroke: rgb(100%,0%,20%); stroke-linecap: round; stroke-width: 1; fill: rgb(100%,0%,20%); fill-rule: evenodd; fill-opacity: 0.5; stroke-opacity: 0.5;"/>
			<polygon points="66.93286 13.8555, 6.107803 13.8555, 5.014303 12.762, 6.107803 11.6685, 66.93286 11.6685" style="stroke: rgb(0%,40%,60%); stroke-linecap: round; stroke-width: 1; fill: rgb(0%,40%,60%); fill-rule: evenodd; fill-opacity: 0.5; stroke-opacity: 0.5;"/>
			<polygon points="69.39149 13.8555, 69.592 13.8555, 70.6855 12.762, 69.592 11.6685, 69.39149 11.6685" style="stroke: rgb(0%,0%,0%); stroke-linecap: round; stroke-width: 1; fill: rgb(0%,0%,0%); fill-rule: evenodd; fill-opacity: 0.5; stroke-opacity: 0.5;"/>
			<polygon points="88.21939 13.8555, 88.01888 13.8555, 86.92538 12.762, 88.01888 11.6685, 88.21939 11.6685" style="stroke: rgb(0%,0%,0%); stroke-linecap: round; stroke-width: 1; fill: rgb(0%,0%,0%); fill-rule: evenodd; fill-opacity: 0.5; stroke-opacity: 0.5;"/>
			<polygon points="73.46763 16.7715, 71.97311 16.7715, 70.87961 15.678, 71.97311 14.5845, 73.46763 14.5845" style="stroke: rgb(100%,0%,20%); stroke-linecap: round; stroke-width: 1; fill: rgb(100%,0%,20%); fill-rule: evenodd; fill-opacity: 0.5; stroke-opacity: 0.5;"/>
			<polygon points="67.51517 16.7715, 6.107803 16.7715, 5.014303 15.678, 6.107803 14.5845, 67.51517 14.5845" style="stroke: rgb(0%,40%,60%); stroke-linecap: round; stroke-width: 1; fill: rgb(0%,40%,60%); fill-rule: evenodd; fill-opacity: 0.5; stroke-opacity: 0.5;"/>
			<polygon points="68.93858 16.7715, 69.1391 16.7715, 70.2326 15.678, 69.1391 14.5845, 68.93858 14.5845" style="stroke: rgb(0%,0%,0%); stroke-linecap: round; stroke-width: 1; fill: rgb(0%,0%,0%); fill-rule: evenodd; fill-opacity: 0.5; stroke-opacity: 0.5;"/>
			<polygon points="87.70178 16.7715, 87.50127 16.7715, 86.40777 15.678, 87.50127 14.5845, 87.70178 14.5845" style="stroke: rgb(0%,0%,0%); stroke-linecap: round; stroke-width: 1; fill: rgb(0%,0%,0%); fill-rule: evenodd; fill-opacity: 0.5; stroke-opacity: 0.5;"/>
			<polygon points="73.46763 19.6875, 71.97311 19.6875, 70.87961 18.594, 71.97311 17.5005, 73.46763 17.5005" style="stroke: rgb(100%,0%,20%); stroke-linecap: round; stroke-width: 1; fill: rgb(100%,0%,20%); fill-rule: evenodd; fill-opacity: 0.5; stroke-opacity: 0.5;"/>
			<polygon points="67.51517 19.6875, 6.107803 19.6875, 5.014303 18.594, 6.107803 17.5005, 67.51517 17.5005" style="stroke: rgb(0%,40%,60%); stroke-linecap: round; stroke-width: 1; fill: rgb(0%,40%,60%); fill-rule: evenodd; fill-opacity: 0.5; stroke-opacity: 0.5;"/>
			<polygon points="68.93858 19.6875, 69.1391 19.6875, 70.2326 18.594, 69.1391 17.5005, 68.93858 17.5005" style="stroke: rgb(0%,0%,0%); stroke-linecap: round; stroke-width: 1; fill: rgb(0%,0%,0%); fill-rule: evenodd; fill-opacity: 0.5; stroke-opacity: 0.5;"/>
			<polygon points="87.70178 19.6875, 87.50127 19.6875, 86.40777 18.594, 87.50127 17.5005, 87.70178 17.5005" style="stroke: rgb(0%,0%,0%); stroke-linecap: round; stroke-width: 1; fill: rgb(0%,0%,0%); fill-rule: evenodd; fill-opacity: 0.5; stroke-opacity: 0.5;"/>
			<polygon points="74.30874 22.6035, 71.9084 22.6035, 70.8149 21.51, 71.9084 20.4165, 74.30874 20.4165" style="stroke: rgb(100%,0%,20%); stroke-linecap: round; stroke-width: 1; fill: rgb(100%,0%,20%); fill-rule: evenodd; fill-opacity: 0.5; stroke-opacity: 0.5;"/>
			<polygon points="67.51517 22.6035, 6.107803 22.6035, 5.014303 21.51, 6.107803 20.4165, 67.51517 20.4165" style="stroke: rgb(0%,40%,60%); stroke-linecap: round; stroke-width: 1; fill: rgb(0%,40%,60%); fill-rule: evenodd; fill-opacity: 0.5; stroke-opacity: 0.5;"/>
			<polygon points="68.93858 22.6035, 69.1391 22.6035, 70.2326 21.51, 69.1391 20.4165, 68.93858 20.4165" style="stroke: rgb(0%,0%,0%); stroke-linecap: round; stroke-width: 1; fill: rgb(0%,0%,0%); fill-rule: evenodd; fill-opacity: 0.5; stroke-opacity: 0.5;"/>
			<polygon points="87.70178 22.6035, 87.50127 22.6035, 86.40777 21.51, 87.50127 20.4165, 87.70178 20.4165" style="stroke: rgb(0%,0%,0%); stroke-linecap: round; stroke-width: 1; fill: rgb(0%,0%,0%); fill-rule: evenodd; fill-opacity: 0.5; stroke-opacity: 0.5;"/>
			<polygon points="74.04994 25.5195, 71.6496 25.5195, 70.5561 24.426, 71.6496 23.3325, 74.04994 23.3325" style="stroke: rgb(100%,0%,20%); stroke-linecap: round; stroke-width: 1; fill: rgb(100%,0%,20%); fill-rule: evenodd; fill-opacity: 0.5; stroke-opacity: 0.5;"/>
			<polygon points="66.15646 25.5195, 6.107803 25.5195, 5.014303 24.426, 6.107803 23.3325, 66.15646 23.3325" style="stroke: rgb(0%,40%,60%); stroke-linecap: round; stroke-width: 1; fill: rgb(0%,40%,60%); fill-rule: evenodd; fill-opacity: 0.5; stroke-opacity: 0.5;"/>
			<polygon points="68.42098 25.5195, 68.8803 25.5195, 69.9738 24.426, 68.8803 23.3325, 68.42098 23.3325" style="stroke: rgb(0%,0%,0%); stroke-linecap: round; stroke-width: 1; fill: rgb(0%,0%,0%); fill-rule: evenodd; fill-opacity: 0.5; stroke-opacity: 0.5;"/>
			<polygon points="87.76649 25.5195, 87.30717 25.5195, 86.21367 24.426, 87.30717 23.3325, 87.76649 23.3325" style="stroke: rgb(0%,0%,0%); stroke-linecap: round; stroke-width: 1; fill: rgb(0%,0%,0%); fill-rule: evenodd; fill-opacity: 0.5; stroke-opacity: 0.5;"/>
			<polygon points="74.63225 28.4355, 72.23191 28.4355, 71.13841 27.342, 72.23191 26.2485, 74.63225 26.2485" style="stroke: rgb(100%,0%,20%); stroke-linecap: round; stroke-width: 1; fill: rgb(100%,0%,20%); fill-rule: evenodd; fill-opacity: 0.5; stroke-opacity: 0.5;"/>
			<polygon points="67.12697 28.4355, 6.107803 28.4355, 5.014303 27.342, 6.107803 26.2485, 67.12697 26.2485" style="stroke: rgb(0%,40%,60%); stroke-linecap: round; stroke-width: 1; fill: rgb(0%,40%,60%); fill-rule: evenodd; fill-opacity: 0.5; stroke-opacity: 0.5;"/>
			<polygon points="69.26209 28.4355, 69.592 28.4355, 70.6855 27.342, 69.592 26.2485, 69.26209 26.2485" style="stroke: rgb(0%,0%,0%); stroke-linecap: round; stroke-width: 1; fill: rgb(0%,0%,0%); fill-rule: evenodd; fill-opacity: 0.5; stroke-opacity: 0.5;"/>
			<polygon points="88.08999 28.4355, 87.76007 28.4355, 86.66657 27.342, 87.76007 26.2485, 88.08999 26.2485" style="stroke: rgb(0%,0%,0%); stroke-linecap: round; stroke-width: 1; fill: rgb(0%,0%,0%); fill-rule: evenodd; fill-opacity: 0.5; stroke-opacity: 0.5;"/>
			<polygon points="19.18375 31.3515, 20.67828 31.3515, 21.77178 30.258, 20.67828 29.1645, 19.18375 29.1645" style="stroke: rgb(100%,0%,20%); stroke-linecap: round; stroke-width: 1; fill: rgb(100%,0%,20%); fill-rule: evenodd; fill-opacity: 0.5; stroke-opacity: 0.5;"/>
			<polygon points="26.10673 31.3515, 86.93179 31.3515, 88.02529 30.258, 86.93179 29.1645, 26.10673 29.1645" style="stroke: rgb(0%,40%,60%); stroke-linecap: round; stroke-width: 1; fill: rgb(0%,40%,60%); fill-rule: evenodd; fill-opacity: 0.5; stroke-opacity: 0.5;"/>
			<polygon points="5.014303 31.3515, 5.214817 31.3515, 6.308317 30.258, 5.214817 29.1645, 5.014303 29.1645" style="stroke: rgb(0%,0%,0%); stroke-linecap: round; stroke-width: 1; fill: rgb(0%,0%,0%); fill-rule: evenodd; fill-opacity: 0.5; stroke-opacity: 0.5;"/>
			<polygon points="23.6481 31.3515, 23.44759 31.3515, 22.35409 30.258, 23.44759 29.1645, 23.6481 29.1645" style="stroke: rgb(0%,0%,0%); stroke-linecap: round; stroke-width: 1; fill: rgb(0%,0%,0%); fill-rule: evenodd; fill-opacity: 0.5; stroke-opacity: 0.5;"/>
			<polygon points="19.70136 34.2675, 21.19589 34.2675, 22.28939 33.174, 21.19589 32.0805, 19.70136 32.0805" style="stroke: rgb(100%,0%,20%); stroke-linecap: round; stroke-width: 1; fill: rgb(100%,0%,20%); fill-rule: evenodd; fill-opacity: 0.5; stroke-opacity: 0.5;"/>
			<polygon points="26.55963 34.2675, 87.5788 34.2675, 88.6723 33.174, 87.5788 32.0805, 26.55963 32.0805" style="stroke: rgb(0%,40%,60%); stroke-linecap: round; stroke-width: 1; fill: rgb(0%,40%,60%); fill-rule: evenodd; fill-opacity: 0.5; stroke-opacity: 0.5;"/>
			<polygon points="5.014303 34.2675, 5.538321 34.2675, 6.631821 33.174, 5.538321 32.0805, 5.014303 32.0805" style="stroke: rgb(0%,0%,0%); stroke-linecap: round; stroke-width: 1; fill: rgb(0%,0%,0%); fill-rule: evenodd; fill-opacity: 0.5; stroke-opacity: 0.5;"/>
			<polygon points="24.48921 34.2675, 23.96519 34.2675, 22.87169 33.174, 23.96519 32.0805, 24.48921 32.0805" style="stroke: rgb(0%,0%,0%); stroke-linecap: round; stroke-width: 1; fill: rgb(0%,0%,0%); fill-rule: evenodd; fill-opacity: 0.5; stroke-opacity: 0.5;"/>
			<polygon points="18.92495 37.1835, 21.32529 37.1835, 22.41879 36.09, 21.32529 34.9965, 18.92495 34.9965" style="stroke: rgb(100%,0%,20%); stroke-linecap: round; stroke-width: 1; fill: rgb(100%,0%,20%); fill-rule: evenodd; fill-opacity: 0.5; stroke-opacity: 0.5;"/>
			<polygon points="26.94784 37.1835, 87.38469 37.1835, 88.47819 36.09, 87.38469 34.9965, 26.94784 34.9965" style="stroke: rgb(0%,40%,60%); stroke-linecap: round; stroke-width: 1; fill: rgb(0%,40%,60%); fill-rule: evenodd; fill-opacity: 0.5; stroke-opacity: 0.5;"/>
			<polygon points="5.014303 37.1835, 5.732423 37.1835, 6.825923 36.09, 5.732423 34.9965, 5.014303 34.9965" style="stroke: rgb(0%,0%,0%); stroke-linecap: round; stroke-width: 1; fill: rgb(0%,0%,0%); fill-rule: evenodd; fill-opacity: 0.5; stroke-opacity: 0.5;"/>
			<polygon points="24.48921 37.1835, 23.77109 37.1835, 22.67759 36.09, 23.77109 34.9965, 24.48921 34.9965" style="stroke: rgb(0%,0%,0%); stroke-linecap: round; stroke-width: 1; fill: rgb(0%,0%,0%); fill-rule: evenodd; fill-opacity: 0.5; stroke-opacity: 0.5;"/>
			<polygon points="17.76034 40.0995, 20.16068 40.0995, 21.25418 39.006, 20.16068 37.9125, 17.76034 37.9125" style="stroke: rgb(100%,0%,20%); stroke-linecap: round; stroke-width: 1; fill: rgb(100%,0%,20%); fill-rule: evenodd; fill-opacity: 0.5; stroke-opacity: 0.5;"/>
			<polygon points="25.26562 40.0995, 85.70248 40.0995, 86.79598 39.006, 85.70248 37.9125, 25.26562 37.9125" style="stroke: rgb(0%,40%,60%); stroke-linecap: round; stroke-width: 1; fill: rgb(0%,40%,60%); fill-rule: evenodd; fill-opacity: 0.5; stroke-opacity: 0.5;"/>
			<polygon points="5.014303 40.0995, 5.150117 40.0995, 6.243617 39.006, 5.150117 37.9125, 5.014303 37.9125" style="stroke: rgb(0%,0%,0%); stroke-linecap: round; stroke-width: 1; fill: rgb(0%,0%,0%); fill-rule: evenodd; fill-opacity: 0.5; stroke-opacity: 0.5;"/>
			<polygon points="23.0658 40.0995, 22.92998 40.0995, 21.83648 39.006, 22.92998 37.9125, 23.0658 37.9125" style="stroke: rgb(0%,0%,0%); stroke-linecap: round; stroke-width: 1; fill: rgb(0%,0%,0%); fill-rule: evenodd; fill-opacity: 0.5; stroke-opacity: 0.5;"/>
			<polygon points="17.76034 43.0155, 20.16068 43.0155, 21.25418 41.922, 20.16068 40.8285, 17.76034 40.8285" style="stroke: rgb(100%,0%,20%); stroke-linecap: round; stroke-width: 1; fill: rgb(100%,0%,20%); fill-rule: evenodd; fill-opacity: 0.5; stroke-opacity: 0.5;"/>
			<polygon points="25.26562 43.0155, 85.70248 43.0155, 86.79598 41.922, 85.70248 40.8285, 25.26562 40.8285" style="stroke: rgb(0%,40%,60%); stroke-linecap: round; stroke-width: 1; fill: rgb(0%,40%,60%); fill-rule: evenodd; fill-opacity: 0.5; stroke-opacity: 0.5;"/>
			<polygon points="5.014303 43.0155, 5.020715 43.0155, 6.114215 41.922, 5.020715 40.8285, 5.014303 40.8285" style="stroke: rgb(0%,0%,0%); stroke-linecap: round; stroke-width: 1; fill: rgb(0%,0%,0%); fill-rule: evenodd; fill-opacity: 0.5; stroke-opacity: 0.5;"/>
			<polygon points="23.0011 43.0155, 22.99468 43.0155, 21.90118 41.922, 22.99468 40.8285, 23.0011 40.8285" style="stroke: rgb(0%,0%,0%); stroke-linecap: round; stroke-width: 1; fill: rgb(0%,0%,0%); fill-rule: evenodd; fill-opacity: 0.5; stroke-opacity: 0.5;"/>
			<polygon points="18.60145 45.9315, 21.00179 45.9315, 22.09529 44.838, 21.00179 43.7445, 18.60145 43.7445" style="stroke: rgb(100%,0%,20%); stroke-linecap: round; stroke-width: 1; fill: rgb(100%,0%,20%); fill-rule: evenodd; fill-opacity: 0.5; stroke-opacity: 0.5;"/>
			<polygon points="26.43023 45.9315, 87.06119 45.9315, 88.15469 44.838, 87.06119 43.7445, 26.43023 43.7445" style="stroke: rgb(0%,40%,60%); stroke-linecap: round; stroke-width: 1; fill: rgb(0%,40%,60%); fill-rule: evenodd; fill-opacity: 0.5; stroke-opacity: 0.5;"/>
			<polygon points="5.014303 45.9315, 5.214817 45.9315, 6.308317 44.838, 5.214817 43.7445, 5.014303 43.7445" style="stroke: rgb(0%,0%,0%); stroke-linecap: round; stroke-width: 1; fill: rgb(0%,0%,0%); fill-rule: evenodd; fill-opacity: 0.5; stroke-opacity: 0.5;"/>
			<polygon points="23.8422 45.9315, 23.64169 45.9315, 22.54819 44.838, 23.64169 43.7445, 23.8422 43.7445" style="stroke: rgb(0%,0%,0%); stroke-linecap: round; stroke-width: 1; fill: rgb(0%,0%,0%); fill-rule: evenodd; fill-opacity: 0.5; stroke-opacity: 0.5;"/>
			<polygon points="18.86025 48.8475, 21.26059 48.8475, 22.35409 47.754, 21.26059 46.6605, 18.86025 46.6605" style="stroke: rgb(100%,0%,20%); stroke-linecap: round; stroke-width: 1; fill: rgb(100%,0%,20%); fill-rule: evenodd; fill-opacity: 0.5; stroke-opacity: 0.5;"/>
			<polygon points="26.68903 48.8475, 87.31999 48.8475, 88.41349 47.754, 87.31999 46.6605, 26.68903 46.6605" style="stroke: rgb(0%,40%,60%); stroke-linecap: round; stroke-width: 1; fill: rgb(0%,40%,60%); fill-rule: evenodd; fill-opacity: 0.5; stroke-opacity: 0.5;"/>
			<polygon points="5.014303 48.8475, 5.732423 48.8475, 6.825923 47.754, 5.732423 46.6605, 5.014303 46.6605" style="stroke: rgb(0%,0%,0%); stroke-linecap: round; stroke-width: 1; fill: rgb(0%,0%,0%); fill-rule: evenodd; fill-opacity: 0.5; stroke-opacity: 0.5;"/>
			<polygon points="24.42451 48.8475, 23.70639 48.8475, 22.61289 47.754, 23.70639 46.6605, 24.42451 46.6605" style="stroke: rgb(0%,0%,0%); stroke-linecap: round; stroke-width: 1; fill: rgb(0%,0%,0%); fill-rule: evenodd; fill-opacity: 0.5; stroke-opacity: 0.5;"/>
			<polygon points="19.11905 51.7635, 21.51939 51.7635, 22.61289 50.67, 21.51939 49.5765, 19.11905 49.5765" style="stroke: rgb(100%,0%,20%); stroke-linecap: round; stroke-width: 1; fill: rgb(100%,0%,20%); fill-rule: evenodd; fill-opacity: 0.5; stroke-opacity: 0.5;"/>
			<polygon points="26.94784 51.7635, 87.5788 51.7635, 88.6723 50.67, 87.5788 49.5765, 26.94784 49.5765" style="stroke: rgb(0%,40%,60%); stroke-linecap: round; stroke-width: 1; fill: rgb(0%,40%,60%); fill-rule: evenodd; fill-opacity: 0.5; stroke-opacity: 0.5;"/>
			<polygon points="5.014303 51.7635, 5.926525 51.7635, 7.020025 50.67, 5.926525 49.5765, 5.014303 49.5765" style="stroke: rgb(0%,0%,0%); stroke-linecap: round; stroke-width: 1; fill: rgb(0%,0%,0%); fill-rule: evenodd; fill-opacity: 0.5; stroke-opacity: 0.5;"/>
			<polygon points="24.87742 51.7635, 23.96519 51.7635, 22.87169 50.67, 23.96519 49.5765, 24.87742 49.5765" style="stroke: rgb(0%,0%,0%); stroke-linecap: round; stroke-width: 1; fill: rgb(0%,0%,0%); fill-rule: evenodd; fill-opacity: 0.5; stroke-opacity: 0.5;"/>
			<path d="M 88.413492,5.8365 L 88.413492,8.0235 Z" style="stroke: rgb(0%,0%,0%); stroke-linecap: butt; stroke-width: 1;"/>
			<path d="M 4.6908,6.93 L 88.413492,6.93 Z" style="stroke: rgb(0%,0%,0%); stroke-linecap: butt; stroke-width: 1;"/>
			<path d="M 4.6908,5.8365 L 4.6908,8.0235 Z" style="stroke: rgb(0%,0%,0%); stroke-linecap: butt; stroke-width: 1;"/>
			<path d="M 87.960588,8.7525 L 87.960588,10.9395 Z" style="stroke: rgb(0%,0%,0%); stroke-linecap: butt; stroke-width: 1;"/>
			<path d="M 4.6908,9.846 L 87.960588,9.846 Z" style="stroke: rgb(0%,0%,0%); stroke-linecap: butt; stroke-width: 1;"/>
			<path d="M 4.6908,8.7525 L 4.6908,10.9395 Z" style="stroke: rgb(0%,0%,0%); stroke-linecap: butt; stroke-width: 1;"/>
			<path d="M 88.542894,11.6685 L 88.542894,13.8555 Z" style="stroke: rgb(0%,0%,0%); stroke-linecap: butt; stroke-width: 1;"/>
			<path d="M 4.6908,12.762 L 88.542894,12.762 Z" style="stroke: rgb(0%,0%,0%); stroke-linecap: butt; stroke-width: 1;"/>
			<path d="M 4.6908,11.6685 L 4.6908,13.8555 Z" style="stroke: rgb(0%,0%,0%); stroke-linecap: butt; stroke-width: 1;"/>
			<path d="M 88.025288,14.5845 L 88.025288,16.7715 Z" style="stroke: rgb(0%,0%,0%); stroke-linecap: butt; stroke-width: 1;"/>
			<path d="M 4.6908,15.678 L 88.025288,15.678 Z" style="stroke: rgb(0%,0%,0%); stroke-linecap: butt; stroke-width: 1;"/>
			<path d="M 4.6908,14.5845 L 4.6908,16.7715 Z" style="stroke: rgb(0%,0%,0%); stroke-linecap: butt; stroke-width: 1;"/>
			<path d="M 88.025288,17.5005 L 88.025288,19.6875 Z" style="stroke: rgb(0%,0%,0%); stroke-linecap: butt; stroke-width: 1;"/>
			<path d="M 4.6908,18.594 L 88.025288,18.594 Z" style="stroke: rgb(0%,0%,0%); stroke-linecap: butt; stroke-width: 1;"/>
			<path d="M 4.6908,17.5005 L 4.6908,19.6875 Z" style="stroke: rgb(0%,0%,0%); stroke-linecap: butt; stroke-width: 1;"/>
			<path d="M 88.025288,20.4165 L 88.025288,22.6035 Z" style="stroke: rgb(0%,0%,0%); stroke-linecap: butt; stroke-width: 1;"/>
			<path d="M 4.6908,21.51 L 88.025288,21.51 Z" style="stroke: rgb(0%,0%,0%); stroke-linecap: butt; stroke-width: 1;"/>
			<path d="M 4.6908,20.4165 L 4.6908,22.6035 Z" style="stroke: rgb(0%,0%,0%); stroke-linecap: butt; stroke-width: 1;"/>
			<path d="M 88.089989,23.3325 L 88.089989,25.5195 Z" style="stroke: rgb(0%,0%,0%); stroke-linecap: butt; stroke-width: 1;"/>
			<path d="M 4.6908,24.426 L 88.089989,24.426 Z" style="stroke: rgb(0%,0%,0%); stroke-linecap: butt; stroke-width: 1;"/>
			<path d="M 4.6908,23.3325 L 4.6908,25.5195 Z" style="stroke: rgb(0%,0%,0%); stroke-linecap: butt; stroke-width: 1;"/>
			<path d="M 88.413492,26.2485 L 88.413492,28.4355 Z" style="stroke: rgb(0%,0%,0%); stroke-linecap: butt; stroke-width: 1;"/>
			<path d="M 4.6908,27.342 L 88.413492,27.342 Z" style="stroke: rgb(0%,0%,0%); stroke-linecap: butt; stroke-width: 1;"/>
			<path d="M 4.6908,26.2485 L 4.6908,28.4355 Z" style="stroke: rgb(0%,0%,0%); stroke-linecap: butt; stroke-width: 1;"/>
			<path d="M 88.348792,29.1645 L 88.348792,31.3515 Z" style="stroke: rgb(0%,0%,0%); stroke-linecap: butt; stroke-width: 1;"/>
			<path d="M 4.6908,30.258 L 88.348792,30.258 Z" style="stroke: rgb(0%,0%,0%); stroke-linecap: butt; stroke-width: 1;"/>
			<path d="M 4.6908,29.1645 L 4.6908,31.3515 Z" style="stroke: rgb(0%,0%,0%); stroke-linecap: butt; stroke-width: 1;"/>
			<path d="M 88.995799,32.0805 L 88.995799,34.2675 Z" style="stroke: rgb(0%,0%,0%); stroke-linecap: butt; stroke-width: 1;"/>
			<path d="M 4.6908,33.174 L 88.995799,33.174 Z" style="stroke: rgb(0%,0%,0%); stroke-linecap: butt; stroke-width: 1;"/>
			<path d="M 4.6908,32.0805 L 4.6908,34.2675 Z" style="stroke: rgb(0%,0%,0%); stroke-linecap: butt; stroke-width: 1;"/>
			<path d="M 88.801697,34.9965 L 88.801697,37.1835 Z" style="stroke: rgb(0%,0%,0%); stroke-linecap: butt; stroke-width: 1;"/>
			<path d="M 4.6908,36.09 L 88.801697,36.09 Z" style="stroke: rgb(0%,0%,0%); stroke-linecap: butt; stroke-width: 1;"/>
			<path d="M 4.6908,34.9965 L 4.6908,37.1835 Z" style="stroke: rgb(0%,0%,0%); stroke-linecap: butt; stroke-width: 1;"/>
			<path d="M 87.119479,37.9125 L 87.119479,40.0995 Z" style="stroke: rgb(0%,0%,0%); stroke-linecap: butt; stroke-width: 1;"/>
			<path d="M 4.6908,39.006 L 87.119479,39.006 Z" style="stroke: rgb(0%,0%,0%); stroke-linecap: butt; stroke-width: 1;"/>
			<path d="M 4.6908,37.9125 L 4.6908,40.0995 Z" style="stroke: rgb(0%,0%,0%); stroke-linecap: butt; stroke-width: 1;"/>
			<path d="M 87.119479,40.8285 L 87.119479,43.0155 Z" style="stroke: rgb(0%,0%,0%); stroke-linecap: butt; stroke-width: 1;"/>
			<path d="M 4.6908,41.922 L 87.119479,41.922 Z" style="stroke: rgb(0%,0%,0%); stroke-linecap: butt; stroke-width: 1;"/>
			<path d="M 4.6908,40.8285 L 4.6908,43.0155 Z" style="stroke: rgb(0%,0%,0%); stroke-linecap: butt; stroke-width: 1;"/>
			<path d="M 88.478193,43.7445 L 88.478193,45.9315 Z" style="stroke: rgb(0%,0%,0%); stroke-linecap: butt; stroke-width: 1;"/>
			<path d="M 4.6908,44.838 L 88.478193,44.838 Z" style="stroke: rgb(0%,0%,0%); stroke-linecap: butt; stroke-width: 1;"/>
			<path d="M 4.6908,43.7445 L 4.6908,45.9315 Z" style="stroke: rgb(0%,0%,0%); stroke-linecap: butt; stroke-width: 1;"/>
			<path d="M 88.736996,46.6605 L 88.736996,48.8475 Z" style="stroke: rgb(0%,0%,0%); stroke-linecap: butt; stroke-width: 1;"/>
			<path d="M 4.6908,47.754 L 88.736996,47.754 Z" style="stroke: rgb(0%,0%,0%); stroke-linecap: butt; stroke-width: 1;"/>
			<path d="M 4.6908,46.6605 L 4.6908,48.8475 Z" style="stroke: rgb(0%,0%,0%); stroke-linecap: butt; stroke-width: 1;"/>
			<path d="M 88.995799,49.5765 L 88.995799,51.7635 Z" style="stroke: rgb(0%,0%,0%); stroke-linecap: butt; stroke-width: 1;"/>
			<path d="M 4.6908,50.67 L 88.995799,50.67 Z" style="stroke: rgb(0%,0%,0%); stroke-linecap: butt; stroke-width: 1;"/>
			<path d="M 4.6908,49.5765 L 4.6908,51.7635 Z" style="stroke: rgb(0%,0%,0%); stroke-linecap: butt; stroke-width: 1;"/>
			<g transform=" matrix(0.707107,0.707107,-0.707107,0.707107,73.855837,5.8365)">
				<text style="font-family: Helvetica; font-size: 6px;fill: rgb(0%,0%,0%); stroke:none;" transform="translate(0,0) scale(1,-1)" x="0" y="0"></text>
			</g>
			<g transform=" matrix(0.707107,0.707107,-0.707107,0.707107,67.903374,5.8365)">
				<text style="font-family: Helvetica; font-size: 6px;fill: rgb(0%,0%,0%); stroke:none;" transform="translate(0,0) scale(1,-1)" x="0" y="0"></text>
			</g>
			<g transform=" matrix(0.707107,0.707107,-0.707107,0.707107,69.326789,8.0235)">
				<text style="font-family: Helvetica; font-size: 6px;fill: rgb(0%,0%,0%); stroke:none;" transform="translate(0,0) scale(1,-1)" x="0" y="0"></text>
			</g>
			<g transform=" matrix(0.707107,0.707107,-0.707107,0.707107,88.089989,5.8365)">
				<text style="font-family: Helvetica; font-size: 6px;fill: rgb(0%,0%,0%); stroke:none;" transform="translate(0,0) scale(1,-1)" x="0" y="0"></text>
			</g>
			<g transform=" matrix(0.707107,0.707107,-0.707107,0.707107,73.532334,8.7525)">
				<text style="font-family: Helvetica; font-size: 6px;fill: rgb(0%,0%,0%); stroke:none;" transform="translate(0,0) scale(1,-1)" x="0" y="0"></text>
			</g>
			<g transform=" matrix(0.707107,0.707107,-0.707107,0.707107,67.51517,8.7525)">
				<text style="font-family: Helvetica; font-size: 6px;fill: rgb(0%,0%,0%); stroke:none;" transform="translate(0,0) scale(1,-1)" x="0" y="0"></text>
			</g>
			<g transform=" matrix(0.707107,0.707107,-0.707107,0.707107,68.938585,10.9395)">
				<text style="font-family: Helvetica; font-size: 6px;fill: rgb(0%,0%,0%); stroke:none;" transform="translate(0,0) scale(1,-1)" x="0" y="0"></text>
			</g>
			<g transform=" matrix(0.707107,0.707107,-0.707107,0.707107,87.637084,8.7525)">
				<text style="font-family: Helvetica; font-size: 6px;fill: rgb(0%,0%,0%); stroke:none;" transform="translate(0,0) scale(1,-1)" x="0" y="0"></text>
			</g>
			<g transform=" matrix(0.707107,0.707107,-0.707107,0.707107,73.985239,11.6685)">
				<text style="font-family: Helvetica; font-size: 6px;fill: rgb(0%,0%,0%); stroke:none;" transform="translate(0,0) scale(1,-1)" x="0" y="0"></text>
			</g>
			<g transform=" matrix(0.707107,0.707107,-0.707107,0.707107,66.932863,11.6685)">
				<text style="font-family: Helvetica; font-size: 6px;fill: rgb(0%,0%,0%); stroke:none;" transform="translate(0,0) scale(1,-1)" x="0" y="0"></text>
			</g>
			<g transform=" matrix(0.707107,0.707107,-0.707107,0.707107,69.39149,13.8555)">
				<text style="font-family: Helvetica; font-size: 6px;fill: rgb(0%,0%,0%); stroke:none;" transform="translate(0,0) scale(1,-1)" x="0" y="0"></text>
			</g>
			<g transform=" matrix(0.707107,0.707107,-0.707107,0.707107,88.21939,11.6685)">
				<text style="font-family: Helvetica; font-size: 6px;fill: rgb(0%,0%,0%); stroke:none;" transform="translate(0,0) scale(1,-1)" x="0" y="0"></text>
			</g>
			<g transform=" matrix(0.707107,0.707107,-0.707107,0.707107,73.467633,14.5845)">
				<text style="font-family: Helvetica; font-size: 6px;fill: rgb(0%,0%,0%); stroke:none;" transform="translate(0,0) scale(1,-1)" x="0" y="0"></text>
			</g>
			<g transform=" matrix(0.707107,0.707107,-0.707107,0.707107,67.51517,14.5845)">
				<text style="font-family: Helvetica; font-size: 6px;fill: rgb(0%,0%,0%); stroke:none;" transform="translate(0,0) scale(1,-1)" x="0" y="0"></text>
			</g>
			<g transform=" matrix(0.707107,0.707107,-0.707107,0.707107,68.938585,16.7715)">
				<text style="font-family: Helvetica; font-size: 6px;fill: rgb(0%,0%,0%); stroke:none;" transform="translate(0,0) scale(1,-1)" x="0" y="0"></text>
			</g>
			<g transform=" matrix(0.707107,0.707107,-0.707107,0.707107,87.701785,14.5845)">
				<text style="font-family: Helvetica; font-size: 6px;fill: rgb(0%,0%,0%); stroke:none;" transform="translate(0,0) scale(1,-1)" x="0" y="0"></text>
			</g>
			<g transform=" matrix(0.707107,0.707107,-0.707107,0.707107,73.467633,17.5005)">
				<text style="font-family: Helvetica; font-size: 6px;fill: rgb(0%,0%,0%); stroke:none;" transform="translate(0,0) scale(1,-1)" x="0" y="0"></text>
			</g>
			<g transform=" matrix(0.707107,0.707107,-0.707107,0.707107,67.51517,17.5005)">
				<text style="font-family: Helvetica; font-size: 6px;fill: rgb(0%,0%,0%); stroke:none;" transform="translate(0,0) scale(1,-1)" x="0" y="0"></text>
			</g>
			<g transform=" matrix(0.707107,0.707107,-0.707107,0.707107,68.938585,19.6875)">
				<text style="font-family: Helvetica; font-size: 6px;fill: rgb(0%,0%,0%); stroke:none;" transform="translate(0,0) scale(1,-1)" x="0" y="0"></text>
			</g>
			<g transform=" matrix(0.707107,0.707107,-0.707107,0.707107,87.701785,17.5005)">
				<text style="font-family: Helvetica; font-size: 6px;fill: rgb(0%,0%,0%); stroke:none;" transform="translate(0,0) scale(1,-1)" x="0" y="0"></text>
			</g>
			<g transform=" matrix(0.707107,0.707107,-0.707107,0.707107,74.308742,20.4165)">
				<text style="font-family: Helvetica; font-size: 6px;fill: rgb(0%,0%,0%); stroke:none;" transform="translate(0,0) scale(1,-1)" x="0" y="0"></text>
			</g>
			<g transform=" matrix(0.707107,0.707107,-0.707107,0.707107,67.51517,20.4165)">
				<text style="font-family: Helvetica; font-size: 6px;fill: rgb(0%,0%,0%); stroke:none;" transform="translate(0,0) scale(1,-1)" x="0" y="0"></text>
			</g>
			<g transform=" matrix(0.707107,0.707107,-0.707107,0.707107,68.938585,22.6035)">
				<text style="font-family: Helvetica; font-size: 6px;fill: rgb(0%,0%,0%); stroke:none;" transform="translate(0,0) scale(1,-1)" x="0" y="0"></text>
			</g>
			<g transform=" matrix(0.707107,0.707107,-0.707107,0.707107,87.701785,20.4165)">
				<text style="font-family: Helvetica; font-size: 6px;fill: rgb(0%,0%,0%); stroke:none;" transform="translate(0,0) scale(1,-1)" x="0" y="0"></text>
			</g>
			<g transform=" matrix(0.707107,0.707107,-0.707107,0.707107,74.049939,23.3325)">
				<text style="font-family: Helvetica; font-size: 6px;fill: rgb(0%,0%,0%); stroke:none;" transform="translate(0,0) scale(1,-1)" x="0" y="0"></text>
			</g>
			<g transform=" matrix(0.707107,0.707107,-0.707107,0.707107,66.156455,23.3325)">
				<text style="font-family: Helvetica; font-size: 6px;fill: rgb(0%,0%,0%); stroke:none;" transform="translate(0,0) scale(1,-1)" x="0" y="0"></text>
			</g>
			<g transform=" matrix(0.707107,0.707107,-0.707107,0.707107,68.420979,25.5195)">
				<text style="font-family: Helvetica; font-size: 6px;fill: rgb(0%,0%,0%); stroke:none;" transform="translate(0,0) scale(1,-1)" x="0" y="0"></text>
			</g>
			<g transform=" matrix(0.707107,0.707107,-0.707107,0.707107,87.766486,23.3325)">
				<text style="font-family: Helvetica; font-size: 6px;fill: rgb(0%,0%,0%); stroke:none;" transform="translate(0,0) scale(1,-1)" x="0" y="0"></text>
			</g>
			<g transform=" matrix(0.707107,0.707107,-0.707107,0.707107,74.632246,26.2485)">
				<text style="font-family: Helvetica; font-size: 6px;fill: rgb(0%,0%,0%); stroke:none;" transform="translate(0,0) scale(1,-1)" x="0" y="0"></text>
			</g>
			<g transform=" matrix(0.707107,0.707107,-0.707107,0.707107,67.126966,26.2485)">
				<text style="font-family: Helvetica; font-size: 6px;fill: rgb(0%,0%,0%); stroke:none;" transform="translate(0,0) scale(1,-1)" x="0" y="0"></text>
			</g>
			<g transform=" matrix(0.707107,0.707107,-0.707107,0.707107,69.262088,28.4355)">
				<text style="font-family: Helvetica; font-size: 6px;fill: rgb(0%,0%,0%); stroke:none;" transform="translate(0,0) scale(1,-1)" x="0" y="0"></text>
			</g>
			<g transform=" matrix(0.707107,0.707107,-0.707107,0.707107,88.089989,26.2485)">
				<text style="font-family: Helvetica; font-size: 6px;fill: rgb(0%,0%,0%); stroke:none;" transform="translate(0,0) scale(1,-1)" x="0" y="0"></text>
			</g>
			<g transform=" matrix(0.707107,0.707107,-0.707107,0.707107,19.183754,31.3515)">
				<text style="font-family: Helvetica; font-size: 6px;fill: rgb(0%,0%,0%); stroke:none;" transform="translate(0,0) scale(1,-1)" x="0" y="0"></text>
			</g>
			<g transform=" matrix(0.707107,0.707107,-0.707107,0.707107,26.106728,31.3515)">
				<text style="font-family: Helvetica; font-size: 6px;fill: rgb(0%,0%,0%); stroke:none;" transform="translate(0,0) scale(1,-1)" x="0" y="0"></text>
			</g>
			<g transform=" matrix(0.707107,0.707107,-0.707107,0.707107,5.014303,31.3515)">
				<text style="font-family: Helvetica; font-size: 6px;fill: rgb(0%,0%,0%); stroke:none;" transform="translate(0,0) scale(1,-1)" x="0" y="0"></text>
			</g>
			<g transform=" matrix(0.707107,0.707107,-0.707107,0.707107,23.648102,29.1645)">
				<text style="font-family: Helvetica; font-size: 6px;fill: rgb(0%,0%,0%); stroke:none;" transform="translate(0,0) scale(1,-1)" x="0" y="0"></text>
			</g>
			<g transform=" matrix(0.707107,0.707107,-0.707107,0.707107,19.70136,34.2675)">
				<text style="font-family: Helvetica; font-size: 6px;fill: rgb(0%,0%,0%); stroke:none;" transform="translate(0,0) scale(1,-1)" x="0" y="0"></text>
			</g>
			<g transform=" matrix(0.707107,0.707107,-0.707107,0.707107,26.559633,34.2675)">
				<text style="font-family: Helvetica; font-size: 6px;fill: rgb(0%,0%,0%); stroke:none;" transform="translate(0,0) scale(1,-1)" x="0" y="0"></text>
			</g>
			<g transform=" matrix(0.707107,0.707107,-0.707107,0.707107,5.014303,34.2675)">
				<text style="font-family: Helvetica; font-size: 6px;fill: rgb(0%,0%,0%); stroke:none;" transform="translate(0,0) scale(1,-1)" x="0" y="0"></text>
			</g>
			<g transform=" matrix(0.707107,0.707107,-0.707107,0.707107,24.489211,32.0805)">
				<text style="font-family: Helvetica; font-size: 6px;fill: rgb(0%,0%,0%); stroke:none;" transform="translate(0,0) scale(1,-1)" x="0" y="0"></text>
			</g>
			<g transform=" matrix(0.707107,0.707107,-0.707107,0.707107,18.924952,37.1835)">
				<text style="font-family: Helvetica; font-size: 6px;fill: rgb(0%,0%,0%); stroke:none;" transform="translate(0,0) scale(1,-1)" x="0" y="0"></text>
			</g>
			<g transform=" matrix(0.707107,0.707107,-0.707107,0.707107,26.947837,37.1835)">
				<text style="font-family: Helvetica; font-size: 6px;fill: rgb(0%,0%,0%); stroke:none;" transform="translate(0,0) scale(1,-1)" x="0" y="0"></text>
			</g>
			<g transform=" matrix(0.707107,0.707107,-0.707107,0.707107,5.014303,37.1835)">
				<text style="font-family: Helvetica; font-size: 6px;fill: rgb(0%,0%,0%); stroke:none;" transform="translate(0,0) scale(1,-1)" x="0" y="0"></text>
			</g>
			<g transform=" matrix(0.707107,0.707107,-0.707107,0.707107,24.489211,34.9965)">
				<text style="font-family: Helvetica; font-size: 6px;fill: rgb(0%,0%,0%); stroke:none;" transform="translate(0,0) scale(1,-1)" x="0" y="0"></text>
			</g>
			<g transform=" matrix(0.707107,0.707107,-0.707107,0.707107,17.760339,40.0995)">
				<text style="font-family: Helvetica; font-size: 6px;fill: rgb(0%,0%,0%); stroke:none;" transform="translate(0,0) scale(1,-1)" x="0" y="0"></text>
			</g>
			<g transform=" matrix(0.707107,0.707107,-0.707107,0.707107,25.265619,40.0995)">
				<text style="font-family: Helvetica; font-size: 6px;fill: rgb(0%,0%,0%); stroke:none;" transform="translate(0,0) scale(1,-1)" x="0" y="0"></text>
			</g>
			<g transform=" matrix(0.707107,0.707107,-0.707107,0.707107,5.014303,40.0995)">
				<text style="font-family: Helvetica; font-size: 6px;fill: rgb(0%,0%,0%); stroke:none;" transform="translate(0,0) scale(1,-1)" x="0" y="0"></text>
			</g>
			<g transform=" matrix(0.707107,0.707107,-0.707107,0.707107,23.065796,37.9125)">
				<text style="font-family: Helvetica; font-size: 6px;fill: rgb(0%,0%,0%); stroke:none;" transform="translate(0,0) scale(1,-1)" x="0" y="0"></text>
			</g>
			<g transform=" matrix(0.707107,0.707107,-0.707107,0.707107,17.760339,43.0155)">
				<text style="font-family: Helvetica; font-size: 6px;fill: rgb(0%,0%,0%); stroke:none;" transform="translate(0,0) scale(1,-1)" x="0" y="0"></text>
			</g>
			<g transform=" matrix(0.707107,0.707107,-0.707107,0.707107,25.265619,43.0155)">
				<text style="font-family: Helvetica; font-size: 6px;fill: rgb(0%,0%,0%); stroke:none;" transform="translate(0,0) scale(1,-1)" x="0" y="0"></text>
			</g>
			<g transform=" matrix(0.707107,0.707107,-0.707107,0.707107,5.014303,43.0155)">
				<text style="font-family: Helvetica; font-size: 6px;fill: rgb(0%,0%,0%); stroke:none;" transform="translate(0,0) scale(1,-1)" x="0" y="0"></text>
			</g>
			<g transform=" matrix(0.707107,0.707107,-0.707107,0.707107,23.001095,40.8285)">
				<text style="font-family: Helvetica; font-size: 6px;fill: rgb(0%,0%,0%); stroke:none;" transform="translate(0,0) scale(1,-1)" x="0" y="0"></text>
			</g>
			<g transform=" matrix(0.707107,0.707107,-0.707107,0.707107,18.601448,45.9315)">
				<text style="font-family: Helvetica; font-size: 6px;fill: rgb(0%,0%,0%); stroke:none;" transform="translate(0,0) scale(1,-1)" x="0" y="0"></text>
			</g>
			<g transform=" matrix(0.707107,0.707107,-0.707107,0.707107,26.430232,45.9315)">
				<text style="font-family: Helvetica; font-size: 6px;fill: rgb(0%,0%,0%); stroke:none;" transform="translate(0,0) scale(1,-1)" x="0" y="0"></text>
			</g>
			<g transform=" matrix(0.707107,0.707107,-0.707107,0.707107,5.014303,45.9315)">
				<text style="font-family: Helvetica; font-size: 6px;fill: rgb(0%,0%,0%); stroke:none;" transform="translate(0,0) scale(1,-1)" x="0" y="0"></text>
			</g>
			<g transform=" matrix(0.707107,0.707107,-0.707107,0.707107,23.842204,43.7445)">
				<text style="font-family: Helvetica; font-size: 6px;fill: rgb(0%,0%,0%); stroke:none;" transform="translate(0,0) scale(1,-1)" x="0" y="0"></text>
			</g>
			<g transform=" matrix(0.707107,0.707107,-0.707107,0.707107,18.860251,48.8475)">
				<text style="font-family: Helvetica; font-size: 6px;fill: rgb(0%,0%,0%); stroke:none;" transform="translate(0,0) scale(1,-1)" x="0" y="0"></text>
			</g>
			<g transform=" matrix(0.707107,0.707107,-0.707107,0.707107,26.689034,48.8475)">
				<text style="font-family: Helvetica; font-size: 6px;fill: rgb(0%,0%,0%); stroke:none;" transform="translate(0,0) scale(1,-1)" x="0" y="0"></text>
			</g>
			<g transform=" matrix(0.707107,0.707107,-0.707107,0.707107,5.014303,48.8475)">
				<text style="font-family: Helvetica; font-size: 6px;fill: rgb(0%,0%,0%); stroke:none;" transform="translate(0,0) scale(1,-1)" x="0" y="0"></text>
			</g>
			<g transform=" matrix(0.707107,0.707107,-0.707107,0.707107,24.42451,46.6605)">
				<text style="font-family: Helvetica; font-size: 6px;fill: rgb(0%,0%,0%); stroke:none;" transform="translate(0,0) scale(1,-1)" x="0" y="0"></text>
			</g>
			<g transform=" matrix(0.707107,0.707107,-0.707107,0.707107,19.119054,51.7635)">
				<text style="font-family: Helvetica; font-size: 6px;fill: rgb(0%,0%,0%); stroke:none;" transform="translate(0,0) scale(1,-1)" x="0" y="0"></text>
			</g>
			<g transform=" matrix(0.707107,0.707107,-0.707107,0.707107,26.947837,51.7635)">
				<text style="font-family: Helvetica; font-size: 6px;fill: rgb(0%,0%,0%); stroke:none;" transform="translate(0,0) scale(1,-1)" x="0" y="0"></text>
			</g>
			<g transform=" matrix(0.707107,0.707107,-0.707107,0.707107,5.014303,51.7635)">
				<text style="font-family: Helvetica; font-size: 6px;fill: rgb(0%,0%,0%); stroke:none;" transform="translate(0,0) scale(1,-1)" x="0" y="0"></text>
			</g>
			<g transform=" matrix(0.707107,0.707107,-0.707107,0.707107,24.877415,49.5765)">
				<text style="font-family: Helvetica; font-size: 6px;fill: rgb(0%,0%,0%); stroke:none;" transform="translate(0,0) scale(1,-1)" x="0" y="0"></text>
			</g>
		</g>
	</g>
</svg>
