<?xml version="1.0" encoding="utf-8"?>
<!DOCTYPE svg
  PUBLIC '-//W3C//DTD SVG 1.0//EN'
  'http://www.w3.org/TR/2001/REC-SVG-20010904/DTD/svg10.dtd'>
<svg fill-rule="evenodd" height="118.8" preserveAspectRatio="xMinYMin meet" version="1.0" viewBox="0 0 286 118" width="286.992" xmlns="http://www.w3.org/2000/svg" xmlns:xlink="http://www.w3.org/1999/xlink">
	<title>...</title>
	<desc>...</desc>
	<clipPath id="clip">
		<rect height="118.8" width="286.992" x="0" y="0"/>
	</clipPath>
	<g id="group" style="clip-path: url(#clip)" transform="scale(1,-1) translate(0,-118)">
		<g transform="">
			<polygon points="47.89917 13.8375, 48.94299 13.8375, 50.03649 12.744, 48.94299 11.6505, 47.89917 11.6505" style="stroke: rgb(100%,0%,20%); stroke-linecap: round; stroke-width: 1; fill: rgb(100%,0%,20%); fill-rule: evenodd; fill-opacity: 0.5; stroke-opacity: 0.5;"/>
			<polygon points="14.67344 13.8375, 43.30822 13.8375, 44.40172 12.744, 43.30822 11.6505, 14.67344 11.6505" style="stroke: rgb(60%,60%,60%); stroke-linecap: round; stroke-width: 1; fill: rgb(60%,60%,60%); fill-rule: evenodd; fill-opacity: 0.5; stroke-opacity: 0.5;"/>
			<polygon points="185.8539 16.7535, 186.8978 16.7535, 187.9913 15.66, 186.8978 14.5665, 185.8539 14.5665" style="stroke: rgb(100%,0%,20%); stroke-linecap: round; stroke-width: 1; fill: rgb(100%,0%,20%); fill-rule: evenodd; fill-opacity: 0.5; stroke-opacity: 0.5;"/>
			<polygon points="14.67344 16.7535, 176.794 16.7535, 177.8875 15.66, 176.794 14.5665, 14.67344 14.5665" style="stroke: rgb(60%,60%,60%); stroke-linecap: round; stroke-width: 1; fill: rgb(60%,60%,60%); fill-rule: evenodd; fill-opacity: 0.5; stroke-opacity: 0.5;"/>
			<polygon points="78.66373 19.6695, 79.70756 19.6695, 80.80106 18.576, 79.70756 17.4825, 78.66373 17.4825" style="stroke: rgb(100%,0%,20%); stroke-linecap: round; stroke-width: 1; fill: rgb(100%,0%,20%); fill-rule: evenodd; fill-opacity: 0.5; stroke-opacity: 0.5;"/>
			<polygon points="14.67344 19.6695, 75.75674 19.6695, 76.85024 18.576, 75.75674 17.4825, 14.67344 17.4825" style="stroke: rgb(60%,60%,60%); stroke-linecap: round; stroke-width: 1; fill: rgb(60%,60%,60%); fill-rule: evenodd; fill-opacity: 0.5; stroke-opacity: 0.5;"/>
			<polygon points="72.76989 22.5855, 73.81371 22.5855, 74.90721 21.492, 73.81371 20.3985, 72.76989 20.3985" style="stroke: rgb(100%,0%,20%); stroke-linecap: round; stroke-width: 1; fill: rgb(100%,0%,20%); fill-rule: evenodd; fill-opacity: 0.5; stroke-opacity: 0.5;"/>
			<polygon points="68.88384 22.5855, 15.76694 22.5855, 14.67344 21.492, 15.76694 20.3985, 68.88384 20.3985" style="stroke: rgb(60%,60%,60%); stroke-linecap: round; stroke-width: 1; fill: rgb(60%,60%,60%); fill-rule: evenodd; fill-opacity: 0.5; stroke-opacity: 0.5;"/>
			<polygon points="57.22569 25.5015, 58.26951 25.5015, 59.36301 24.408, 58.26951 23.3145, 57.22569 23.3145" style="stroke: rgb(100%,0%,20%); stroke-linecap: round; stroke-width: 1; fill: rgb(100%,0%,20%); fill-rule: evenodd; fill-opacity: 0.5; stroke-opacity: 0.5;"/>
			<polygon points="53.72824 25.5015, 15.76694 25.5015, 14.67344 24.408, 15.76694 23.3145, 53.72824 23.3145" style="stroke: rgb(60%,60%,60%); stroke-linecap: round; stroke-width: 1; fill: rgb(60%,60%,60%); fill-rule: evenodd; fill-opacity: 0.5; stroke-opacity: 0.5;"/>
			<polygon points="128.0813 28.4175, 129.1252 28.4175, 130.2187 27.324, 129.1252 26.2305, 128.0813 26.2305" style="stroke: rgb(100%,0%,20%); stroke-linecap: round; stroke-width: 1; fill: rgb(100%,0%,20%); fill-rule: evenodd; fill-opacity: 0.5; stroke-opacity: 0.5;"/>
			<polygon points="124.0657 28.4175, 15.76694 28.4175, 14.67344 27.324, 15.76694 26.2305, 124.0657 26.2305" style="stroke: rgb(60%,60%,60%); stroke-linecap: round; stroke-width: 1; fill: rgb(60%,60%,60%); fill-rule: evenodd; fill-opacity: 0.5; stroke-opacity: 0.5;"/>
			<polygon points="242.7198 31.3335, 243.7636 31.3335, 244.8571 30.24, 243.7636 29.1465, 242.7198 29.1465" style="stroke: rgb(100%,0%,20%); stroke-linecap: round; stroke-width: 1; fill: rgb(100%,0%,20%); fill-rule: evenodd; fill-opacity: 0.5; stroke-opacity: 0.5;"/>
			<polygon points="222.7714 31.3335, 15.76694 31.3335, 14.67344 30.24, 15.76694 29.1465, 222.7714 29.1465" style="stroke: rgb(60%,60%,60%); stroke-linecap: round; stroke-width: 1; fill: rgb(60%,60%,60%); fill-rule: evenodd; fill-opacity: 0.5; stroke-opacity: 0.5;"/>
			<polygon points="233.199 31.3335, 233.5304 31.3335, 234.6239 30.24, 233.5304 29.1465, 233.199 29.1465" style="stroke: rgb(0%,0%,0%); stroke-linecap: round; stroke-width: 1; fill: rgb(0%,0%,0%); fill-rule: evenodd; fill-opacity: 0.5; stroke-opacity: 0.5;"/>
			<polygon points="251.3987 31.3335, 251.0673 31.3335, 249.9738 30.24, 251.0673 29.1465, 251.3987 29.1465" style="stroke: rgb(0%,0%,0%); stroke-linecap: round; stroke-width: 1; fill: rgb(0%,0%,0%); fill-rule: evenodd; fill-opacity: 0.5; stroke-opacity: 0.5;"/>
			<polygon points="106.6433 34.2495, 107.6871 34.2495, 108.7806 33.156, 107.6871 32.0625, 106.6433 32.0625" style="stroke: rgb(100%,0%,20%); stroke-linecap: round; stroke-width: 1; fill: rgb(100%,0%,20%); fill-rule: evenodd; fill-opacity: 0.5; stroke-opacity: 0.5;"/>
			<polygon points="96.28049 34.2495, 15.76694 34.2495, 14.67344 33.156, 15.76694 32.0625, 96.28049 32.0625" style="stroke: rgb(60%,60%,60%); stroke-linecap: round; stroke-width: 1; fill: rgb(60%,60%,60%); fill-rule: evenodd; fill-opacity: 0.5; stroke-opacity: 0.5;"/>
			<polygon points="34.55706 37.1655, 35.60089 37.1655, 36.69439 36.072, 35.60089 34.9785, 34.55706 34.9785" style="stroke: rgb(100%,0%,20%); stroke-linecap: round; stroke-width: 1; fill: rgb(100%,0%,20%); fill-rule: evenodd; fill-opacity: 0.5; stroke-opacity: 0.5;"/>
			<polygon points="88.76746 37.1655, 46.7258 37.1655, 45.6323 36.072, 46.7258 34.9785, 88.76746 34.9785" style="stroke: rgb(60%,60%,60%); stroke-linecap: round; stroke-width: 1; fill: rgb(60%,60%,60%); fill-rule: evenodd; fill-opacity: 0.5; stroke-opacity: 0.5;"/>
			<polygon points="14.67344 37.1655, 15.13436 37.1655, 16.22786 36.072, 15.13436 34.9785, 14.67344 34.9785" style="stroke: rgb(0%,0%,0%); stroke-linecap: round; stroke-width: 1; fill: rgb(0%,0%,0%); fill-rule: evenodd; fill-opacity: 0.5; stroke-opacity: 0.5;"/>
			<polygon points="42.58823 37.1655, 42.12731 37.1655, 41.03381 36.072, 42.12731 34.9785, 42.58823 34.9785" style="stroke: rgb(0%,0%,0%); stroke-linecap: round; stroke-width: 1; fill: rgb(0%,0%,0%); fill-rule: evenodd; fill-opacity: 0.5; stroke-opacity: 0.5;"/>
			<polygon points="16.81077 40.0815, 15.76694 40.0815, 14.67344 38.988, 15.76694 37.8945, 16.81077 37.8945" style="stroke: rgb(100%,0%,20%); stroke-linecap: round; stroke-width: 1; fill: rgb(100%,0%,20%); fill-rule: evenodd; fill-opacity: 0.5; stroke-opacity: 0.5;"/>
			<polygon points="22.44554 40.0815, 106.6508 40.0815, 107.7443 38.988, 106.6508 37.8945, 22.44554 37.8945" style="stroke: rgb(60%,60%,60%); stroke-linecap: round; stroke-width: 1; fill: rgb(60%,60%,60%); fill-rule: evenodd; fill-opacity: 0.5; stroke-opacity: 0.5;"/>
			<polygon points="16.81077 42.9975, 15.76694 42.9975, 14.67344 41.904, 15.76694 40.8105, 16.81077 40.8105" style="stroke: rgb(100%,0%,20%); stroke-linecap: round; stroke-width: 1; fill: rgb(100%,0%,20%); fill-rule: evenodd; fill-opacity: 0.5; stroke-opacity: 0.5;"/>
			<polygon points="30.86531 42.9975, 17.96903 42.9975, 16.87553 41.904, 17.96903 40.8105, 30.86531 40.8105" style="stroke: rgb(60%,60%,60%); stroke-linecap: round; stroke-width: 1; fill: rgb(60%,60%,60%); fill-rule: evenodd; fill-opacity: 0.5; stroke-opacity: 0.5;"/>
			<polygon points="16.81077 45.9135, 15.76694 45.9135, 14.67344 44.82, 15.76694 43.7265, 16.81077 43.7265" style="stroke: rgb(100%,0%,20%); stroke-linecap: round; stroke-width: 1; fill: rgb(100%,0%,20%); fill-rule: evenodd; fill-opacity: 0.5; stroke-opacity: 0.5;"/>
			<polygon points="43.88358 45.9135, 18.74624 45.9135, 17.65274 44.82, 18.74624 43.7265, 43.88358 43.7265" style="stroke: rgb(60%,60%,60%); stroke-linecap: round; stroke-width: 1; fill: rgb(60%,60%,60%); fill-rule: evenodd; fill-opacity: 0.5; stroke-opacity: 0.5;"/>
			<polygon points="16.81077 48.8295, 15.76694 48.8295, 14.67344 47.736, 15.76694 46.6425, 16.81077 46.6425" style="stroke: rgb(100%,0%,20%); stroke-linecap: round; stroke-width: 1; fill: rgb(100%,0%,20%); fill-rule: evenodd; fill-opacity: 0.5; stroke-opacity: 0.5;"/>
			<polygon points="80.60676 48.8295, 18.16334 48.8295, 17.06984 47.736, 18.16334 46.6425, 80.60676 46.6425" style="stroke: rgb(60%,60%,60%); stroke-linecap: round; stroke-width: 1; fill: rgb(60%,60%,60%); fill-rule: evenodd; fill-opacity: 0.5; stroke-opacity: 0.5;"/>
			<polygon points="16.81077 51.7455, 15.76694 51.7455, 14.67344 50.652, 15.76694 49.5585, 16.81077 49.5585" style="stroke: rgb(100%,0%,20%); stroke-linecap: round; stroke-width: 1; fill: rgb(100%,0%,20%); fill-rule: evenodd; fill-opacity: 0.5; stroke-opacity: 0.5;"/>
			<polygon points="47.70486 51.7455, 16.73845 51.7455, 15.64495 50.652, 16.73845 49.5585, 47.70486 49.5585" style="stroke: rgb(60%,60%,60%); stroke-linecap: round; stroke-width: 1; fill: rgb(60%,60%,60%); fill-rule: evenodd; fill-opacity: 0.5; stroke-opacity: 0.5;"/>
			<polygon points="34.36276 54.6615, 33.31893 54.6615, 32.22543 53.568, 33.31893 52.4745, 34.36276 52.4745" style="stroke: rgb(0%,50%,0%); stroke-linecap: round; stroke-width: 1; fill: rgb(0%,50%,0%); fill-rule: evenodd; fill-opacity: 0.5; stroke-opacity: 0.5;"/>
			<polygon points="29.05182 54.6615, 15.76694 54.6615, 14.67344 53.568, 15.76694 52.4745, 29.05182 52.4745" style="stroke: rgb(60%,60%,60%); stroke-linecap: round; stroke-width: 1; fill: rgb(60%,60%,60%); fill-rule: evenodd; fill-opacity: 0.5; stroke-opacity: 0.5;"/>
			<polygon points="110.5941 57.5775, 109.5503 57.5775, 108.4568 56.484, 109.5503 55.3905, 110.5941 55.3905" style="stroke: rgb(0%,50%,0%); stroke-linecap: round; stroke-width: 1; fill: rgb(0%,50%,0%); fill-rule: evenodd; fill-opacity: 0.5; stroke-opacity: 0.5;"/>
			<polygon points="93.75456 57.5775, 15.76694 57.5775, 14.67344 56.484, 15.76694 55.3905, 93.75456 55.3905" style="stroke: rgb(60%,60%,60%); stroke-linecap: round; stroke-width: 1; fill: rgb(60%,60%,60%); fill-rule: evenodd; fill-opacity: 0.5; stroke-opacity: 0.5;"/>
			<polygon points="89.67421 60.4935, 88.63038 60.4935, 87.53688 59.4, 88.63038 58.3065, 89.67421 58.3065" style="stroke: rgb(0%,50%,0%); stroke-linecap: round; stroke-width: 1; fill: rgb(0%,50%,0%); fill-rule: evenodd; fill-opacity: 0.5; stroke-opacity: 0.5;"/>
			<polygon points="83.65083 60.4935, 15.76694 60.4935, 14.67344 59.4, 15.76694 58.3065, 83.65083 58.3065" style="stroke: rgb(60%,60%,60%); stroke-linecap: round; stroke-width: 1; fill: rgb(60%,60%,60%); fill-rule: evenodd; fill-opacity: 0.5; stroke-opacity: 0.5;"/>
			<polygon points="96.53956 63.4095, 95.49573 63.4095, 94.40223 62.316, 95.49573 61.2225, 96.53956 61.2225" style="stroke: rgb(0%,50%,0%); stroke-linecap: round; stroke-width: 1; fill: rgb(0%,50%,0%); fill-rule: evenodd; fill-opacity: 0.5; stroke-opacity: 0.5;"/>
			<polygon points="92.97735 63.4095, 15.76694 63.4095, 14.67344 62.316, 15.76694 61.2225, 92.97735 61.2225" style="stroke: rgb(60%,60%,60%); stroke-linecap: round; stroke-width: 1; fill: rgb(60%,60%,60%); fill-rule: evenodd; fill-opacity: 0.5; stroke-opacity: 0.5;"/>
			<polygon points="58.5858 66.3255, 57.54198 66.3255, 56.44848 65.232, 57.54198 64.1385, 58.5858 64.1385" style="stroke: rgb(0%,50%,0%); stroke-linecap: round; stroke-width: 1; fill: rgb(0%,50%,0%); fill-rule: evenodd; fill-opacity: 0.5; stroke-opacity: 0.5;"/>
			<polygon points="55.08836 66.3255, 15.76694 66.3255, 14.67344 65.232, 15.76694 64.1385, 55.08836 64.1385" style="stroke: rgb(60%,60%,60%); stroke-linecap: round; stroke-width: 1; fill: rgb(60%,60%,60%); fill-rule: evenodd; fill-opacity: 0.5; stroke-opacity: 0.5;"/>
			<polygon points="55.21789 69.2415, 54.17407 69.2415, 53.08057 68.148, 54.17407 67.0545, 55.21789 67.0545" style="stroke: rgb(0%,50%,0%); stroke-linecap: round; stroke-width: 1; fill: rgb(0%,50%,0%); fill-rule: evenodd; fill-opacity: 0.5; stroke-opacity: 0.5;"/>
			<polygon points="51.97952 69.2415, 15.76694 69.2415, 14.67344 68.148, 15.76694 67.0545, 51.97952 67.0545" style="stroke: rgb(60%,60%,60%); stroke-linecap: round; stroke-width: 1; fill: rgb(60%,60%,60%); fill-rule: evenodd; fill-opacity: 0.5; stroke-opacity: 0.5;"/>
			<polygon points="272.189 72.1575, 271.1452 72.1575, 270.0517 71.064, 271.1452 69.9705, 272.189 69.9705" style="stroke: rgb(0%,50%,0%); stroke-linecap: round; stroke-width: 1; fill: rgb(0%,50%,0%); fill-rule: evenodd; fill-opacity: 0.5; stroke-opacity: 0.5;"/>
			<polygon points="268.4325 72.1575, 15.76694 72.1575, 14.67344 71.064, 15.76694 69.9705, 268.4325 69.9705" style="stroke: rgb(60%,60%,60%); stroke-linecap: round; stroke-width: 1; fill: rgb(60%,60%,60%); fill-rule: evenodd; fill-opacity: 0.5; stroke-opacity: 0.5;"/>
			<polygon points="59.03918 75.0735, 57.99535 75.0735, 56.90185 73.98, 57.99535 72.8865, 59.03918 72.8865" style="stroke: rgb(0%,50%,0%); stroke-linecap: round; stroke-width: 1; fill: rgb(0%,50%,0%); fill-rule: evenodd; fill-opacity: 0.5; stroke-opacity: 0.5;"/>
			<polygon points="55.08836 75.0735, 15.76694 75.0735, 14.67344 73.98, 15.76694 72.8865, 55.08836 72.8865" style="stroke: rgb(60%,60%,60%); stroke-linecap: round; stroke-width: 1; fill: rgb(60%,60%,60%); fill-rule: evenodd; fill-opacity: 0.5; stroke-opacity: 0.5;"/>
			<polygon points="14.67344 77.9895, 15.71727 77.9895, 16.81077 76.896, 15.71727 75.8025, 14.67344 75.8025" style="stroke: rgb(0%,50%,0%); stroke-linecap: round; stroke-width: 1; fill: rgb(0%,50%,0%); fill-rule: evenodd; fill-opacity: 0.5; stroke-opacity: 0.5;"/>
			<polygon points="19.79007 77.9895, 105.3555 77.9895, 106.449 76.896, 105.3555 75.8025, 19.79007 75.8025" style="stroke: rgb(60%,60%,60%); stroke-linecap: round; stroke-width: 1; fill: rgb(60%,60%,60%); fill-rule: evenodd; fill-opacity: 0.5; stroke-opacity: 0.5;"/>
			<polygon points="14.67344 80.9055, 15.71727 80.9055, 16.81077 79.812, 15.71727 78.7185, 14.67344 78.7185" style="stroke: rgb(0%,50%,0%); stroke-linecap: round; stroke-width: 1; fill: rgb(0%,50%,0%); fill-rule: evenodd; fill-opacity: 0.5; stroke-opacity: 0.5;"/>
			<polygon points="29.56996 80.9055, 132.0397 80.9055, 133.1332 79.812, 132.0397 78.7185, 29.56996 78.7185" style="stroke: rgb(60%,60%,60%); stroke-linecap: round; stroke-width: 1; fill: rgb(60%,60%,60%); fill-rule: evenodd; fill-opacity: 0.5; stroke-opacity: 0.5;"/>
			<polygon points="14.67344 83.8215, 15.71727 83.8215, 16.81077 82.728, 15.71727 81.6345, 14.67344 81.6345" style="stroke: rgb(0%,50%,0%); stroke-linecap: round; stroke-width: 1; fill: rgb(0%,50%,0%); fill-rule: evenodd; fill-opacity: 0.5; stroke-opacity: 0.5;"/>
			<polygon points="19.1424 83.8215, 66.62452 83.8215, 67.71802 82.728, 66.62452 81.6345, 19.1424 81.6345" style="stroke: rgb(60%,60%,60%); stroke-linecap: round; stroke-width: 1; fill: rgb(60%,60%,60%); fill-rule: evenodd; fill-opacity: 0.5; stroke-opacity: 0.5;"/>
			<polygon points="14.67344 86.7375, 15.71727 86.7375, 16.81077 85.644, 15.71727 84.5505, 14.67344 84.5505" style="stroke: rgb(0%,50%,0%); stroke-linecap: round; stroke-width: 1; fill: rgb(0%,50%,0%); fill-rule: evenodd; fill-opacity: 0.5; stroke-opacity: 0.5;"/>
			<polygon points="17.00507 86.7375, 110.1483 86.7375, 111.2418 85.644, 110.1483 84.5505, 17.00507 84.5505" style="stroke: rgb(60%,60%,60%); stroke-linecap: round; stroke-width: 1; fill: rgb(60%,60%,60%); fill-rule: evenodd; fill-opacity: 0.5; stroke-opacity: 0.5;"/>
			<polygon points="14.67344 89.6535, 15.71727 89.6535, 16.81077 88.56, 15.71727 87.4665, 14.67344 87.4665" style="stroke: rgb(0%,50%,0%); stroke-linecap: round; stroke-width: 1; fill: rgb(0%,50%,0%); fill-rule: evenodd; fill-opacity: 0.5; stroke-opacity: 0.5;"/>
			<polygon points="18.68902 89.6535, 86.76722 89.6535, 87.86072 88.56, 86.76722 87.4665, 18.68902 87.4665" style="stroke: rgb(60%,60%,60%); stroke-linecap: round; stroke-width: 1; fill: rgb(60%,60%,60%); fill-rule: evenodd; fill-opacity: 0.5; stroke-opacity: 0.5;"/>
			<polygon points="14.67344 92.5695, 15.71727 92.5695, 16.81077 91.476, 15.71727 90.3825, 14.67344 90.3825" style="stroke: rgb(0%,50%,0%); stroke-linecap: round; stroke-width: 1; fill: rgb(0%,50%,0%); fill-rule: evenodd; fill-opacity: 0.5; stroke-opacity: 0.5;"/>
			<polygon points="19.07763 92.5695, 41.88334 92.5695, 42.97684 91.476, 41.88334 90.3825, 19.07763 90.3825" style="stroke: rgb(60%,60%,60%); stroke-linecap: round; stroke-width: 1; fill: rgb(60%,60%,60%); fill-rule: evenodd; fill-opacity: 0.5; stroke-opacity: 0.5;"/>
			<polygon points="14.67344 95.4855, 15.71727 95.4855, 16.81077 94.392, 15.71727 93.2985, 14.67344 93.2985" style="stroke: rgb(0%,50%,0%); stroke-linecap: round; stroke-width: 1; fill: rgb(0%,50%,0%); fill-rule: evenodd; fill-opacity: 0.5; stroke-opacity: 0.5;"/>
			<polygon points="17.91181 95.4855, 39.94031 95.4855, 41.03381 94.392, 39.94031 93.2985, 17.91181 93.2985" style="stroke: rgb(60%,60%,60%); stroke-linecap: round; stroke-width: 1; fill: rgb(60%,60%,60%); fill-rule: evenodd; fill-opacity: 0.5; stroke-opacity: 0.5;"/>
			<polygon points="14.67344 98.4015, 15.71727 98.4015, 16.81077 97.308, 15.71727 96.2145, 14.67344 96.2145" style="stroke: rgb(0%,50%,0%); stroke-linecap: round; stroke-width: 1; fill: rgb(0%,50%,0%); fill-rule: evenodd; fill-opacity: 0.5; stroke-opacity: 0.5;"/>
			<polygon points="19.40147 98.4015, 140.1356 98.4015, 141.2291 97.308, 140.1356 96.2145, 19.40147 96.2145" style="stroke: rgb(60%,60%,60%); stroke-linecap: round; stroke-width: 1; fill: rgb(60%,60%,60%); fill-rule: evenodd; fill-opacity: 0.5; stroke-opacity: 0.5;"/>
			<polygon points="14.67344 101.3175, 15.71727 101.3175, 16.81077 100.224, 15.71727 99.1305, 14.67344 99.1305" style="stroke: rgb(0%,50%,0%); stroke-linecap: round; stroke-width: 1; fill: rgb(0%,50%,0%); fill-rule: evenodd; fill-opacity: 0.5; stroke-opacity: 0.5;"/>
			<polygon points="21.9274 101.3175, 227.3775 101.3175, 228.471 100.224, 227.3775 99.1305, 21.9274 99.1305" style="stroke: rgb(60%,60%,60%); stroke-linecap: round; stroke-width: 1; fill: rgb(60%,60%,60%); fill-rule: evenodd; fill-opacity: 0.5; stroke-opacity: 0.5;"/>
			<polygon points="14.67344 104.2335, 15.71727 104.2335, 16.81077 103.14, 15.71727 102.0465, 14.67344 102.0465" style="stroke: rgb(0%,50%,0%); stroke-linecap: round; stroke-width: 1; fill: rgb(0%,50%,0%); fill-rule: evenodd; fill-opacity: 0.5; stroke-opacity: 0.5;"/>
			<polygon points="18.49472 104.2335, 68.50278 104.2335, 69.59628 103.14, 68.50278 102.0465, 18.49472 102.0465" style="stroke: rgb(60%,60%,60%); stroke-linecap: round; stroke-width: 1; fill: rgb(60%,60%,60%); fill-rule: evenodd; fill-opacity: 0.5; stroke-opacity: 0.5;"/>
			<polygon points="14.67344 107.1495, 15.71727 107.1495, 16.81077 106.056, 15.71727 104.9625, 14.67344 104.9625" style="stroke: rgb(0%,50%,0%); stroke-linecap: round; stroke-width: 1; fill: rgb(0%,50%,0%); fill-rule: evenodd; fill-opacity: 0.5; stroke-opacity: 0.5;"/>
			<polygon points="18.10612 107.1495, 139.8118 107.1495, 140.9053 106.056, 139.8118 104.9625, 18.10612 104.9625" style="stroke: rgb(60%,60%,60%); stroke-linecap: round; stroke-width: 1; fill: rgb(60%,60%,60%); fill-rule: evenodd; fill-opacity: 0.5; stroke-opacity: 0.5;"/>
			<path d="M 50.360331,11.6505 L 50.360331,13.8375 Z" style="stroke: rgb(0%,0%,0%); stroke-linecap: butt; stroke-width: 1;"/>
			<path d="M 14.3496,12.744 L 50.360331,12.744 Z" style="stroke: rgb(0%,0%,0%); stroke-linecap: butt; stroke-width: 1;"/>
			<path d="M 14.3496,11.6505 L 14.3496,13.8375 Z" style="stroke: rgb(0%,0%,0%); stroke-linecap: butt; stroke-width: 1;"/>
			<path d="M 188.315112,14.5665 L 188.315112,16.7535 Z" style="stroke: rgb(0%,0%,0%); stroke-linecap: butt; stroke-width: 1;"/>
			<path d="M 14.3496,15.66 L 188.315112,15.66 Z" style="stroke: rgb(0%,0%,0%); stroke-linecap: butt; stroke-width: 1;"/>
			<path d="M 14.3496,14.5665 L 14.3496,16.7535 Z" style="stroke: rgb(0%,0%,0%); stroke-linecap: butt; stroke-width: 1;"/>
			<path d="M 81.124895,17.4825 L 81.124895,19.6695 Z" style="stroke: rgb(0%,0%,0%); stroke-linecap: butt; stroke-width: 1;"/>
			<path d="M 14.3496,18.576 L 81.124895,18.576 Z" style="stroke: rgb(0%,0%,0%); stroke-linecap: butt; stroke-width: 1;"/>
			<path d="M 14.3496,17.4825 L 14.3496,19.6695 Z" style="stroke: rgb(0%,0%,0%); stroke-linecap: butt; stroke-width: 1;"/>
			<path d="M 75.231052,20.3985 L 75.231052,22.5855 Z" style="stroke: rgb(0%,0%,0%); stroke-linecap: butt; stroke-width: 1;"/>
			<path d="M 14.3496,21.492 L 75.231052,21.492 Z" style="stroke: rgb(0%,0%,0%); stroke-linecap: butt; stroke-width: 1;"/>
			<path d="M 14.3496,20.3985 L 14.3496,22.5855 Z" style="stroke: rgb(0%,0%,0%); stroke-linecap: butt; stroke-width: 1;"/>
			<path d="M 59.686852,23.3145 L 59.686852,25.5015 Z" style="stroke: rgb(0%,0%,0%); stroke-linecap: butt; stroke-width: 1;"/>
			<path d="M 14.3496,24.408 L 59.686852,24.408 Z" style="stroke: rgb(0%,0%,0%); stroke-linecap: butt; stroke-width: 1;"/>
			<path d="M 14.3496,23.3145 L 14.3496,25.5015 Z" style="stroke: rgb(0%,0%,0%); stroke-linecap: butt; stroke-width: 1;"/>
			<path d="M 130.542499,26.2305 L 130.542499,28.4175 Z" style="stroke: rgb(0%,0%,0%); stroke-linecap: butt; stroke-width: 1;"/>
			<path d="M 14.3496,27.324 L 130.542499,27.324 Z" style="stroke: rgb(0%,0%,0%); stroke-linecap: butt; stroke-width: 1;"/>
			<path d="M 14.3496,26.2305 L 14.3496,28.4175 Z" style="stroke: rgb(0%,0%,0%); stroke-linecap: butt; stroke-width: 1;"/>
			<path d="M 251.722497,29.1465 L 251.722497,31.3335 Z" style="stroke: rgb(0%,0%,0%); stroke-linecap: butt; stroke-width: 1;"/>
			<path d="M 14.3496,30.24 L 251.722497,30.24 Z" style="stroke: rgb(0%,0%,0%); stroke-linecap: butt; stroke-width: 1;"/>
			<path d="M 14.3496,29.1465 L 14.3496,31.3335 Z" style="stroke: rgb(0%,0%,0%); stroke-linecap: butt; stroke-width: 1;"/>
			<path d="M 109.104456,32.0625 L 109.104456,34.2495 Z" style="stroke: rgb(0%,0%,0%); stroke-linecap: butt; stroke-width: 1;"/>
			<path d="M 14.3496,33.156 L 109.104456,33.156 Z" style="stroke: rgb(0%,0%,0%); stroke-linecap: butt; stroke-width: 1;"/>
			<path d="M 14.3496,32.0625 L 14.3496,34.2495 Z" style="stroke: rgb(0%,0%,0%); stroke-linecap: butt; stroke-width: 1;"/>
			<path d="M 89.091298,34.9785 L 89.091298,37.1655 Z" style="stroke: rgb(0%,0%,0%); stroke-linecap: butt; stroke-width: 1;"/>
			<path d="M 14.3496,36.072 L 89.091298,36.072 Z" style="stroke: rgb(0%,0%,0%); stroke-linecap: butt; stroke-width: 1;"/>
			<path d="M 14.3496,34.9785 L 14.3496,37.1655 Z" style="stroke: rgb(0%,0%,0%); stroke-linecap: butt; stroke-width: 1;"/>
			<path d="M 108.068176,37.8945 L 108.068176,40.0815 Z" style="stroke: rgb(0%,0%,0%); stroke-linecap: butt; stroke-width: 1;"/>
			<path d="M 14.3496,38.988 L 108.068176,38.988 Z" style="stroke: rgb(0%,0%,0%); stroke-linecap: butt; stroke-width: 1;"/>
			<path d="M 14.3496,37.8945 L 14.3496,40.0815 Z" style="stroke: rgb(0%,0%,0%); stroke-linecap: butt; stroke-width: 1;"/>
			<path d="M 31.189151,40.8105 L 31.189151,42.9975 Z" style="stroke: rgb(0%,0%,0%); stroke-linecap: butt; stroke-width: 1;"/>
			<path d="M 14.3496,41.904 L 31.189151,41.904 Z" style="stroke: rgb(0%,0%,0%); stroke-linecap: butt; stroke-width: 1;"/>
			<path d="M 14.3496,40.8105 L 14.3496,42.9975 Z" style="stroke: rgb(0%,0%,0%); stroke-linecap: butt; stroke-width: 1;"/>
			<path d="M 44.207419,43.7265 L 44.207419,45.9135 Z" style="stroke: rgb(0%,0%,0%); stroke-linecap: butt; stroke-width: 1;"/>
			<path d="M 14.3496,44.82 L 44.207419,44.82 Z" style="stroke: rgb(0%,0%,0%); stroke-linecap: butt; stroke-width: 1;"/>
			<path d="M 14.3496,43.7265 L 14.3496,45.9135 Z" style="stroke: rgb(0%,0%,0%); stroke-linecap: butt; stroke-width: 1;"/>
			<path d="M 80.930593,46.6425 L 80.930593,48.8295 Z" style="stroke: rgb(0%,0%,0%); stroke-linecap: butt; stroke-width: 1;"/>
			<path d="M 14.3496,47.736 L 80.930593,47.736 Z" style="stroke: rgb(0%,0%,0%); stroke-linecap: butt; stroke-width: 1;"/>
			<path d="M 14.3496,46.6425 L 14.3496,48.8295 Z" style="stroke: rgb(0%,0%,0%); stroke-linecap: butt; stroke-width: 1;"/>
			<path d="M 48.028701,49.5585 L 48.028701,51.7455 Z" style="stroke: rgb(0%,0%,0%); stroke-linecap: butt; stroke-width: 1;"/>
			<path d="M 14.3496,50.652 L 48.028701,50.652 Z" style="stroke: rgb(0%,0%,0%); stroke-linecap: butt; stroke-width: 1;"/>
			<path d="M 14.3496,49.5585 L 14.3496,51.7455 Z" style="stroke: rgb(0%,0%,0%); stroke-linecap: butt; stroke-width: 1;"/>
			<path d="M 34.686596,52.4745 L 34.686596,54.6615 Z" style="stroke: rgb(0%,0%,0%); stroke-linecap: butt; stroke-width: 1;"/>
			<path d="M 14.3496,53.568 L 34.686596,53.568 Z" style="stroke: rgb(0%,0%,0%); stroke-linecap: butt; stroke-width: 1;"/>
			<path d="M 14.3496,52.4745 L 14.3496,54.6615 Z" style="stroke: rgb(0%,0%,0%); stroke-linecap: butt; stroke-width: 1;"/>
			<path d="M 110.917946,55.3905 L 110.917946,57.5775 Z" style="stroke: rgb(0%,0%,0%); stroke-linecap: butt; stroke-width: 1;"/>
			<path d="M 14.3496,56.484 L 110.917946,56.484 Z" style="stroke: rgb(0%,0%,0%); stroke-linecap: butt; stroke-width: 1;"/>
			<path d="M 14.3496,55.3905 L 14.3496,57.5775 Z" style="stroke: rgb(0%,0%,0%); stroke-linecap: butt; stroke-width: 1;"/>
			<path d="M 89.998043,58.3065 L 89.998043,60.4935 Z" style="stroke: rgb(0%,0%,0%); stroke-linecap: butt; stroke-width: 1;"/>
			<path d="M 14.3496,59.4 L 89.998043,59.4 Z" style="stroke: rgb(0%,0%,0%); stroke-linecap: butt; stroke-width: 1;"/>
			<path d="M 14.3496,58.3065 L 14.3496,60.4935 Z" style="stroke: rgb(0%,0%,0%); stroke-linecap: butt; stroke-width: 1;"/>
			<path d="M 96.863398,61.2225 L 96.863398,63.4095 Z" style="stroke: rgb(0%,0%,0%); stroke-linecap: butt; stroke-width: 1;"/>
			<path d="M 14.3496,62.316 L 96.863398,62.316 Z" style="stroke: rgb(0%,0%,0%); stroke-linecap: butt; stroke-width: 1;"/>
			<path d="M 14.3496,61.2225 L 14.3496,63.4095 Z" style="stroke: rgb(0%,0%,0%); stroke-linecap: butt; stroke-width: 1;"/>
			<path d="M 58.909642,64.1385 L 58.909642,66.3255 Z" style="stroke: rgb(0%,0%,0%); stroke-linecap: butt; stroke-width: 1;"/>
			<path d="M 14.3496,65.232 L 58.909642,65.232 Z" style="stroke: rgb(0%,0%,0%); stroke-linecap: butt; stroke-width: 1;"/>
			<path d="M 14.3496,64.1385 L 14.3496,66.3255 Z" style="stroke: rgb(0%,0%,0%); stroke-linecap: butt; stroke-width: 1;"/>
			<path d="M 55.541732,67.0545 L 55.541732,69.2415 Z" style="stroke: rgb(0%,0%,0%); stroke-linecap: butt; stroke-width: 1;"/>
			<path d="M 14.3496,68.148 L 55.541732,68.148 Z" style="stroke: rgb(0%,0%,0%); stroke-linecap: butt; stroke-width: 1;"/>
			<path d="M 14.3496,67.0545 L 14.3496,69.2415 Z" style="stroke: rgb(0%,0%,0%); stroke-linecap: butt; stroke-width: 1;"/>
			<path d="M 272.512865,69.9705 L 272.512865,72.1575 Z" style="stroke: rgb(0%,0%,0%); stroke-linecap: butt; stroke-width: 1;"/>
			<path d="M 14.3496,71.064 L 272.512865,71.064 Z" style="stroke: rgb(0%,0%,0%); stroke-linecap: butt; stroke-width: 1;"/>
			<path d="M 14.3496,69.9705 L 14.3496,72.1575 Z" style="stroke: rgb(0%,0%,0%); stroke-linecap: butt; stroke-width: 1;"/>
			<path d="M 59.363014,72.8865 L 59.363014,75.0735 Z" style="stroke: rgb(0%,0%,0%); stroke-linecap: butt; stroke-width: 1;"/>
			<path d="M 14.3496,73.98 L 59.363014,73.98 Z" style="stroke: rgb(0%,0%,0%); stroke-linecap: butt; stroke-width: 1;"/>
			<path d="M 14.3496,72.8865 L 14.3496,75.0735 Z" style="stroke: rgb(0%,0%,0%); stroke-linecap: butt; stroke-width: 1;"/>
			<path d="M 106.772826,75.8025 L 106.772826,77.9895 Z" style="stroke: rgb(0%,0%,0%); stroke-linecap: butt; stroke-width: 1;"/>
			<path d="M 14.3496,76.896 L 106.772826,76.896 Z" style="stroke: rgb(0%,0%,0%); stroke-linecap: butt; stroke-width: 1;"/>
			<path d="M 14.3496,75.8025 L 14.3496,77.9895 Z" style="stroke: rgb(0%,0%,0%); stroke-linecap: butt; stroke-width: 1;"/>
			<path d="M 133.457037,78.7185 L 133.457037,80.9055 Z" style="stroke: rgb(0%,0%,0%); stroke-linecap: butt; stroke-width: 1;"/>
			<path d="M 14.3496,79.812 L 133.457037,79.812 Z" style="stroke: rgb(0%,0%,0%); stroke-linecap: butt; stroke-width: 1;"/>
			<path d="M 14.3496,78.7185 L 14.3496,80.9055 Z" style="stroke: rgb(0%,0%,0%); stroke-linecap: butt; stroke-width: 1;"/>
			<path d="M 68.04186,81.6345 L 68.04186,83.8215 Z" style="stroke: rgb(0%,0%,0%); stroke-linecap: butt; stroke-width: 1;"/>
			<path d="M 14.3496,82.728 L 68.04186,82.728 Z" style="stroke: rgb(0%,0%,0%); stroke-linecap: butt; stroke-width: 1;"/>
			<path d="M 14.3496,81.6345 L 14.3496,83.8215 Z" style="stroke: rgb(0%,0%,0%); stroke-linecap: butt; stroke-width: 1;"/>
			<path d="M 111.565621,84.5505 L 111.565621,86.7375 Z" style="stroke: rgb(0%,0%,0%); stroke-linecap: butt; stroke-width: 1;"/>
			<path d="M 14.3496,85.644 L 111.565621,85.644 Z" style="stroke: rgb(0%,0%,0%); stroke-linecap: butt; stroke-width: 1;"/>
			<path d="M 14.3496,84.5505 L 14.3496,86.7375 Z" style="stroke: rgb(0%,0%,0%); stroke-linecap: butt; stroke-width: 1;"/>
			<path d="M 88.184553,87.4665 L 88.184553,89.6535 Z" style="stroke: rgb(0%,0%,0%); stroke-linecap: butt; stroke-width: 1;"/>
			<path d="M 14.3496,88.56 L 88.184553,88.56 Z" style="stroke: rgb(0%,0%,0%); stroke-linecap: butt; stroke-width: 1;"/>
			<path d="M 14.3496,87.4665 L 14.3496,89.6535 Z" style="stroke: rgb(0%,0%,0%); stroke-linecap: butt; stroke-width: 1;"/>
			<path d="M 43.300674,90.3825 L 43.300674,92.5695 Z" style="stroke: rgb(0%,0%,0%); stroke-linecap: butt; stroke-width: 1;"/>
			<path d="M 14.3496,91.476 L 43.300674,91.476 Z" style="stroke: rgb(0%,0%,0%); stroke-linecap: butt; stroke-width: 1;"/>
			<path d="M 14.3496,90.3825 L 14.3496,92.5695 Z" style="stroke: rgb(0%,0%,0%); stroke-linecap: butt; stroke-width: 1;"/>
			<path d="M 41.357649,93.2985 L 41.357649,95.4855 Z" style="stroke: rgb(0%,0%,0%); stroke-linecap: butt; stroke-width: 1;"/>
			<path d="M 14.3496,94.392 L 41.357649,94.392 Z" style="stroke: rgb(0%,0%,0%); stroke-linecap: butt; stroke-width: 1;"/>
			<path d="M 14.3496,93.2985 L 14.3496,95.4855 Z" style="stroke: rgb(0%,0%,0%); stroke-linecap: butt; stroke-width: 1;"/>
			<path d="M 141.552975,96.2145 L 141.552975,98.4015 Z" style="stroke: rgb(0%,0%,0%); stroke-linecap: butt; stroke-width: 1;"/>
			<path d="M 14.3496,97.308 L 141.552975,97.308 Z" style="stroke: rgb(0%,0%,0%); stroke-linecap: butt; stroke-width: 1;"/>
			<path d="M 14.3496,96.2145 L 14.3496,98.4015 Z" style="stroke: rgb(0%,0%,0%); stroke-linecap: butt; stroke-width: 1;"/>
			<path d="M 228.794801,99.1305 L 228.794801,101.3175 Z" style="stroke: rgb(0%,0%,0%); stroke-linecap: butt; stroke-width: 1;"/>
			<path d="M 14.3496,100.224 L 228.794801,100.224 Z" style="stroke: rgb(0%,0%,0%); stroke-linecap: butt; stroke-width: 1;"/>
			<path d="M 14.3496,99.1305 L 14.3496,101.3175 Z" style="stroke: rgb(0%,0%,0%); stroke-linecap: butt; stroke-width: 1;"/>
			<path d="M 69.920117,102.0465 L 69.920117,104.2335 Z" style="stroke: rgb(0%,0%,0%); stroke-linecap: butt; stroke-width: 1;"/>
			<path d="M 14.3496,103.14 L 69.920117,103.14 Z" style="stroke: rgb(0%,0%,0%); stroke-linecap: butt; stroke-width: 1;"/>
			<path d="M 14.3496,102.0465 L 14.3496,104.2335 Z" style="stroke: rgb(0%,0%,0%); stroke-linecap: butt; stroke-width: 1;"/>
			<path d="M 141.229137,104.9625 L 141.229137,107.1495 Z" style="stroke: rgb(0%,0%,0%); stroke-linecap: butt; stroke-width: 1;"/>
			<path d="M 14.3496,106.056 L 141.229137,106.056 Z" style="stroke: rgb(0%,0%,0%); stroke-linecap: butt; stroke-width: 1;"/>
			<path d="M 14.3496,104.9625 L 14.3496,107.1495 Z" style="stroke: rgb(0%,0%,0%); stroke-linecap: butt; stroke-width: 1;"/>
			<g transform=" matrix(0.707107,0.707107,-0.707107,0.707107,47.899166,13.8375)">
				<text style="font-family: Helvetica; font-size: 6px;fill: rgb(0%,0%,0%); stroke:none;" transform="translate(0,0) scale(1,-1)" x="0" y="0"></text>
			</g>
			<g transform=" matrix(0.707107,0.707107,-0.707107,0.707107,14.673438,13.8375)">
				<text style="font-family: Helvetica; font-size: 6px;fill: rgb(0%,0%,0%); stroke:none;" transform="translate(0,0) scale(1,-1)" x="0" y="0"></text>
			</g>
			<g transform=" matrix(0.707107,0.707107,-0.707107,0.707107,185.853947,16.7535)">
				<text style="font-family: Helvetica; font-size: 6px;fill: rgb(0%,0%,0%); stroke:none;" transform="translate(0,0) scale(1,-1)" x="0" y="0"></text>
			</g>
			<g transform=" matrix(0.707107,0.707107,-0.707107,0.707107,14.673438,16.7535)">
				<text style="font-family: Helvetica; font-size: 6px;fill: rgb(0%,0%,0%); stroke:none;" transform="translate(0,0) scale(1,-1)" x="0" y="0"></text>
			</g>
			<g transform=" matrix(0.707107,0.707107,-0.707107,0.707107,78.66373,19.6695)">
				<text style="font-family: Helvetica; font-size: 6px;fill: rgb(0%,0%,0%); stroke:none;" transform="translate(0,0) scale(1,-1)" x="0" y="0"></text>
			</g>
			<g transform=" matrix(0.707107,0.707107,-0.707107,0.707107,14.673438,19.6695)">
				<text style="font-family: Helvetica; font-size: 6px;fill: rgb(0%,0%,0%); stroke:none;" transform="translate(0,0) scale(1,-1)" x="0" y="0"></text>
			</g>
			<g transform=" matrix(0.707107,0.707107,-0.707107,0.707107,72.769887,22.5855)">
				<text style="font-family: Helvetica; font-size: 6px;fill: rgb(0%,0%,0%); stroke:none;" transform="translate(0,0) scale(1,-1)" x="0" y="0"></text>
			</g>
			<g transform=" matrix(0.707107,0.707107,-0.707107,0.707107,68.883837,20.3985)">
				<text style="font-family: Helvetica; font-size: 6px;fill: rgb(0%,0%,0%); stroke:none;" transform="translate(0,0) scale(1,-1)" x="0" y="0"></text>
			</g>
			<g transform=" matrix(0.707107,0.707107,-0.707107,0.707107,57.225687,25.5015)">
				<text style="font-family: Helvetica; font-size: 6px;fill: rgb(0%,0%,0%); stroke:none;" transform="translate(0,0) scale(1,-1)" x="0" y="0"></text>
			</g>
			<g transform=" matrix(0.707107,0.707107,-0.707107,0.707107,53.728242,23.3145)">
				<text style="font-family: Helvetica; font-size: 6px;fill: rgb(0%,0%,0%); stroke:none;" transform="translate(0,0) scale(1,-1)" x="0" y="0"></text>
			</g>
			<g transform=" matrix(0.707107,0.707107,-0.707107,0.707107,128.081334,28.4175)">
				<text style="font-family: Helvetica; font-size: 6px;fill: rgb(0%,0%,0%); stroke:none;" transform="translate(0,0) scale(1,-1)" x="0" y="0"></text>
			</g>
			<g transform=" matrix(0.707107,0.707107,-0.707107,0.707107,124.065749,26.2305)">
				<text style="font-family: Helvetica; font-size: 6px;fill: rgb(0%,0%,0%); stroke:none;" transform="translate(0,0) scale(1,-1)" x="0" y="0"></text>
			</g>
			<g transform=" matrix(0.707107,0.707107,-0.707107,0.707107,242.719814,31.3335)">
				<text style="font-family: Helvetica; font-size: 6px;fill: rgb(0%,0%,0%); stroke:none;" transform="translate(0,0) scale(1,-1)" x="0" y="0"></text>
			</g>
			<g transform=" matrix(0.707107,0.707107,-0.707107,0.707107,222.771423,29.1465)">
				<text style="font-family: Helvetica; font-size: 6px;fill: rgb(0%,0%,0%); stroke:none;" transform="translate(0,0) scale(1,-1)" x="0" y="0"></text>
			</g>
			<g transform=" matrix(0.707107,0.707107,-0.707107,0.707107,233.198991,31.3335)">
				<text style="font-family: Helvetica; font-size: 6px;fill: rgb(0%,0%,0%); stroke:none;" transform="translate(0,0) scale(1,-1)" x="0" y="0"></text>
			</g>
			<g transform=" matrix(0.707107,0.707107,-0.707107,0.707107,251.398659,29.1465)">
				<text style="font-family: Helvetica; font-size: 6px;fill: rgb(0%,0%,0%); stroke:none;" transform="translate(0,0) scale(1,-1)" x="0" y="0"></text>
			</g>
			<g transform=" matrix(0.707107,0.707107,-0.707107,0.707107,106.643291,34.2495)">
				<text style="font-family: Helvetica; font-size: 6px;fill: rgb(0%,0%,0%); stroke:none;" transform="translate(0,0) scale(1,-1)" x="0" y="0"></text>
			</g>
			<g transform=" matrix(0.707107,0.707107,-0.707107,0.707107,96.280491,32.0625)">
				<text style="font-family: Helvetica; font-size: 6px;fill: rgb(0%,0%,0%); stroke:none;" transform="translate(0,0) scale(1,-1)" x="0" y="0"></text>
			</g>
			<g transform=" matrix(0.707107,0.707107,-0.707107,0.707107,34.557061,37.1655)">
				<text style="font-family: Helvetica; font-size: 6px;fill: rgb(0%,0%,0%); stroke:none;" transform="translate(0,0) scale(1,-1)" x="0" y="0"></text>
			</g>
			<g transform=" matrix(0.707107,0.707107,-0.707107,0.707107,88.76746,34.9785)">
				<text style="font-family: Helvetica; font-size: 6px;fill: rgb(0%,0%,0%); stroke:none;" transform="translate(0,0) scale(1,-1)" x="0" y="0"></text>
			</g>
			<g transform=" matrix(0.707107,0.707107,-0.707107,0.707107,14.673438,37.1655)">
				<text style="font-family: Helvetica; font-size: 6px;fill: rgb(0%,0%,0%); stroke:none;" transform="translate(0,0) scale(1,-1)" x="0" y="0"></text>
			</g>
			<g transform=" matrix(0.707107,0.707107,-0.707107,0.707107,42.588231,34.9785)">
				<text style="font-family: Helvetica; font-size: 6px;fill: rgb(0%,0%,0%); stroke:none;" transform="translate(0,0) scale(1,-1)" x="0" y="0"></text>
			</g>
			<g transform=" matrix(0.707107,0.707107,-0.707107,0.707107,16.810765,37.8945)">
				<text style="font-family: Helvetica; font-size: 6px;fill: rgb(0%,0%,0%); stroke:none;" transform="translate(0,0) scale(1,-1)" x="0" y="0"></text>
			</g>
			<g transform=" matrix(0.707107,0.707107,-0.707107,0.707107,22.445538,40.0815)">
				<text style="font-family: Helvetica; font-size: 6px;fill: rgb(0%,0%,0%); stroke:none;" transform="translate(0,0) scale(1,-1)" x="0" y="0"></text>
			</g>
			<g transform=" matrix(0.707107,0.707107,-0.707107,0.707107,16.810765,40.8105)">
				<text style="font-family: Helvetica; font-size: 6px;fill: rgb(0%,0%,0%); stroke:none;" transform="translate(0,0) scale(1,-1)" x="0" y="0"></text>
			</g>
			<g transform=" matrix(0.707107,0.707107,-0.707107,0.707107,30.865313,40.8105)">
				<text style="font-family: Helvetica; font-size: 6px;fill: rgb(0%,0%,0%); stroke:none;" transform="translate(0,0) scale(1,-1)" x="0" y="0"></text>
			</g>
			<g transform=" matrix(0.707107,0.707107,-0.707107,0.707107,16.810765,43.7265)">
				<text style="font-family: Helvetica; font-size: 6px;fill: rgb(0%,0%,0%); stroke:none;" transform="translate(0,0) scale(1,-1)" x="0" y="0"></text>
			</g>
			<g transform=" matrix(0.707107,0.707107,-0.707107,0.707107,43.883581,43.7265)">
				<text style="font-family: Helvetica; font-size: 6px;fill: rgb(0%,0%,0%); stroke:none;" transform="translate(0,0) scale(1,-1)" x="0" y="0"></text>
			</g>
			<g transform=" matrix(0.707107,0.707107,-0.707107,0.707107,16.810765,46.6425)">
				<text style="font-family: Helvetica; font-size: 6px;fill: rgb(0%,0%,0%); stroke:none;" transform="translate(0,0) scale(1,-1)" x="0" y="0"></text>
			</g>
			<g transform=" matrix(0.707107,0.707107,-0.707107,0.707107,80.606755,46.6425)">
				<text style="font-family: Helvetica; font-size: 6px;fill: rgb(0%,0%,0%); stroke:none;" transform="translate(0,0) scale(1,-1)" x="0" y="0"></text>
			</g>
			<g transform=" matrix(0.707107,0.707107,-0.707107,0.707107,16.810765,49.5585)">
				<text style="font-family: Helvetica; font-size: 6px;fill: rgb(0%,0%,0%); stroke:none;" transform="translate(0,0) scale(1,-1)" x="0" y="0"></text>
			</g>
			<g transform=" matrix(0.707107,0.707107,-0.707107,0.707107,47.704864,49.5585)">
				<text style="font-family: Helvetica; font-size: 6px;fill: rgb(0%,0%,0%); stroke:none;" transform="translate(0,0) scale(1,-1)" x="0" y="0"></text>
			</g>
			<g transform=" matrix(0.707107,0.707107,-0.707107,0.707107,34.362758,52.4745)">
				<text style="font-family: Helvetica; font-size: 6px;fill: rgb(0%,0%,0%); stroke:none;" transform="translate(0,0) scale(1,-1)" x="0" y="0"></text>
			</g>
			<g transform=" matrix(0.707107,0.707107,-0.707107,0.707107,29.051823,52.4745)">
				<text style="font-family: Helvetica; font-size: 6px;fill: rgb(0%,0%,0%); stroke:none;" transform="translate(0,0) scale(1,-1)" x="0" y="0"></text>
			</g>
			<g transform=" matrix(0.707107,0.707107,-0.707107,0.707107,110.594109,55.3905)">
				<text style="font-family: Helvetica; font-size: 6px;fill: rgb(0%,0%,0%); stroke:none;" transform="translate(0,0) scale(1,-1)" x="0" y="0"></text>
			</g>
			<g transform=" matrix(0.707107,0.707107,-0.707107,0.707107,93.754558,55.3905)">
				<text style="font-family: Helvetica; font-size: 6px;fill: rgb(0%,0%,0%); stroke:none;" transform="translate(0,0) scale(1,-1)" x="0" y="0"></text>
			</g>
			<g transform=" matrix(0.707107,0.707107,-0.707107,0.707107,89.674205,58.3065)">
				<text style="font-family: Helvetica; font-size: 6px;fill: rgb(0%,0%,0%); stroke:none;" transform="translate(0,0) scale(1,-1)" x="0" y="0"></text>
			</g>
			<g transform=" matrix(0.707107,0.707107,-0.707107,0.707107,83.650828,58.3065)">
				<text style="font-family: Helvetica; font-size: 6px;fill: rgb(0%,0%,0%); stroke:none;" transform="translate(0,0) scale(1,-1)" x="0" y="0"></text>
			</g>
			<g transform=" matrix(0.707107,0.707107,-0.707107,0.707107,96.539561,61.2225)">
				<text style="font-family: Helvetica; font-size: 6px;fill: rgb(0%,0%,0%); stroke:none;" transform="translate(0,0) scale(1,-1)" x="0" y="0"></text>
			</g>
			<g transform=" matrix(0.707107,0.707107,-0.707107,0.707107,92.977348,61.2225)">
				<text style="font-family: Helvetica; font-size: 6px;fill: rgb(0%,0%,0%); stroke:none;" transform="translate(0,0) scale(1,-1)" x="0" y="0"></text>
			</g>
			<g transform=" matrix(0.707107,0.707107,-0.707107,0.707107,58.585804,64.1385)">
				<text style="font-family: Helvetica; font-size: 6px;fill: rgb(0%,0%,0%); stroke:none;" transform="translate(0,0) scale(1,-1)" x="0" y="0"></text>
			</g>
			<g transform=" matrix(0.707107,0.707107,-0.707107,0.707107,55.088359,64.1385)">
				<text style="font-family: Helvetica; font-size: 6px;fill: rgb(0%,0%,0%); stroke:none;" transform="translate(0,0) scale(1,-1)" x="0" y="0"></text>
			</g>
			<g transform=" matrix(0.707107,0.707107,-0.707107,0.707107,55.217894,67.0545)">
				<text style="font-family: Helvetica; font-size: 6px;fill: rgb(0%,0%,0%); stroke:none;" transform="translate(0,0) scale(1,-1)" x="0" y="0"></text>
			</g>
			<g transform=" matrix(0.707107,0.707107,-0.707107,0.707107,51.979519,67.0545)">
				<text style="font-family: Helvetica; font-size: 6px;fill: rgb(0%,0%,0%); stroke:none;" transform="translate(0,0) scale(1,-1)" x="0" y="0"></text>
			</g>
			<g transform=" matrix(0.707107,0.707107,-0.707107,0.707107,272.189027,69.9705)">
				<text style="font-family: Helvetica; font-size: 6px;fill: rgb(0%,0%,0%); stroke:none;" transform="translate(0,0) scale(1,-1)" x="0" y="0"></text>
			</g>
			<g transform=" matrix(0.707107,0.707107,-0.707107,0.707107,268.432512,69.9705)">
				<text style="font-family: Helvetica; font-size: 6px;fill: rgb(0%,0%,0%); stroke:none;" transform="translate(0,0) scale(1,-1)" x="0" y="0"></text>
			</g>
			<g transform=" matrix(0.707107,0.707107,-0.707107,0.707107,59.039177,72.8865)">
				<text style="font-family: Helvetica; font-size: 6px;fill: rgb(0%,0%,0%); stroke:none;" transform="translate(0,0) scale(1,-1)" x="0" y="0"></text>
			</g>
			<g transform=" matrix(0.707107,0.707107,-0.707107,0.707107,55.088359,72.8865)">
				<text style="font-family: Helvetica; font-size: 6px;fill: rgb(0%,0%,0%); stroke:none;" transform="translate(0,0) scale(1,-1)" x="0" y="0"></text>
			</g>
			<g transform=" matrix(0.707107,0.707107,-0.707107,0.707107,14.673438,77.9895)">
				<text style="font-family: Helvetica; font-size: 6px;fill: rgb(0%,0%,0%); stroke:none;" transform="translate(0,0) scale(1,-1)" x="0" y="0"></text>
			</g>
			<g transform=" matrix(0.707107,0.707107,-0.707107,0.707107,19.79007,77.9895)">
				<text style="font-family: Helvetica; font-size: 6px;fill: rgb(0%,0%,0%); stroke:none;" transform="translate(0,0) scale(1,-1)" x="0" y="0"></text>
			</g>
			<g transform=" matrix(0.707107,0.707107,-0.707107,0.707107,14.673438,80.9055)">
				<text style="font-family: Helvetica; font-size: 6px;fill: rgb(0%,0%,0%); stroke:none;" transform="translate(0,0) scale(1,-1)" x="0" y="0"></text>
			</g>
			<g transform=" matrix(0.707107,0.707107,-0.707107,0.707107,29.569963,80.9055)">
				<text style="font-family: Helvetica; font-size: 6px;fill: rgb(0%,0%,0%); stroke:none;" transform="translate(0,0) scale(1,-1)" x="0" y="0"></text>
			</g>
			<g transform=" matrix(0.707107,0.707107,-0.707107,0.707107,14.673438,83.8215)">
				<text style="font-family: Helvetica; font-size: 6px;fill: rgb(0%,0%,0%); stroke:none;" transform="translate(0,0) scale(1,-1)" x="0" y="0"></text>
			</g>
			<g transform=" matrix(0.707107,0.707107,-0.707107,0.707107,19.142395,83.8215)">
				<text style="font-family: Helvetica; font-size: 6px;fill: rgb(0%,0%,0%); stroke:none;" transform="translate(0,0) scale(1,-1)" x="0" y="0"></text>
			</g>
			<g transform=" matrix(0.707107,0.707107,-0.707107,0.707107,14.673438,86.7375)">
				<text style="font-family: Helvetica; font-size: 6px;fill: rgb(0%,0%,0%); stroke:none;" transform="translate(0,0) scale(1,-1)" x="0" y="0"></text>
			</g>
			<g transform=" matrix(0.707107,0.707107,-0.707107,0.707107,17.005068,86.7375)">
				<text style="font-family: Helvetica; font-size: 6px;fill: rgb(0%,0%,0%); stroke:none;" transform="translate(0,0) scale(1,-1)" x="0" y="0"></text>
			</g>
			<g transform=" matrix(0.707107,0.707107,-0.707107,0.707107,14.673438,89.6535)">
				<text style="font-family: Helvetica; font-size: 6px;fill: rgb(0%,0%,0%); stroke:none;" transform="translate(0,0) scale(1,-1)" x="0" y="0"></text>
			</g>
			<g transform=" matrix(0.707107,0.707107,-0.707107,0.707107,18.689023,89.6535)">
				<text style="font-family: Helvetica; font-size: 6px;fill: rgb(0%,0%,0%); stroke:none;" transform="translate(0,0) scale(1,-1)" x="0" y="0"></text>
			</g>
			<g transform=" matrix(0.707107,0.707107,-0.707107,0.707107,14.673438,92.5695)">
				<text style="font-family: Helvetica; font-size: 6px;fill: rgb(0%,0%,0%); stroke:none;" transform="translate(0,0) scale(1,-1)" x="0" y="0"></text>
			</g>
			<g transform=" matrix(0.707107,0.707107,-0.707107,0.707107,19.077628,92.5695)">
				<text style="font-family: Helvetica; font-size: 6px;fill: rgb(0%,0%,0%); stroke:none;" transform="translate(0,0) scale(1,-1)" x="0" y="0"></text>
			</g>
			<g transform=" matrix(0.707107,0.707107,-0.707107,0.707107,14.673438,95.4855)">
				<text style="font-family: Helvetica; font-size: 6px;fill: rgb(0%,0%,0%); stroke:none;" transform="translate(0,0) scale(1,-1)" x="0" y="0"></text>
			</g>
			<g transform=" matrix(0.707107,0.707107,-0.707107,0.707107,17.911813,95.4855)">
				<text style="font-family: Helvetica; font-size: 6px;fill: rgb(0%,0%,0%); stroke:none;" transform="translate(0,0) scale(1,-1)" x="0" y="0"></text>
			</g>
			<g transform=" matrix(0.707107,0.707107,-0.707107,0.707107,14.673438,98.4015)">
				<text style="font-family: Helvetica; font-size: 6px;fill: rgb(0%,0%,0%); stroke:none;" transform="translate(0,0) scale(1,-1)" x="0" y="0"></text>
			</g>
			<g transform=" matrix(0.707107,0.707107,-0.707107,0.707107,19.401465,98.4015)">
				<text style="font-family: Helvetica; font-size: 6px;fill: rgb(0%,0%,0%); stroke:none;" transform="translate(0,0) scale(1,-1)" x="0" y="0"></text>
			</g>
			<g transform=" matrix(0.707107,0.707107,-0.707107,0.707107,14.673438,101.3175)">
				<text style="font-family: Helvetica; font-size: 6px;fill: rgb(0%,0%,0%); stroke:none;" transform="translate(0,0) scale(1,-1)" x="0" y="0"></text>
			</g>
			<g transform=" matrix(0.707107,0.707107,-0.707107,0.707107,21.927398,101.3175)">
				<text style="font-family: Helvetica; font-size: 6px;fill: rgb(0%,0%,0%); stroke:none;" transform="translate(0,0) scale(1,-1)" x="0" y="0"></text>
			</g>
			<g transform=" matrix(0.707107,0.707107,-0.707107,0.707107,14.673438,104.2335)">
				<text style="font-family: Helvetica; font-size: 6px;fill: rgb(0%,0%,0%); stroke:none;" transform="translate(0,0) scale(1,-1)" x="0" y="0"></text>
			</g>
			<g transform=" matrix(0.707107,0.707107,-0.707107,0.707107,18.49472,104.2335)">
				<text style="font-family: Helvetica; font-size: 6px;fill: rgb(0%,0%,0%); stroke:none;" transform="translate(0,0) scale(1,-1)" x="0" y="0"></text>
			</g>
			<g transform=" matrix(0.707107,0.707107,-0.707107,0.707107,14.673438,107.1495)">
				<text style="font-family: Helvetica; font-size: 6px;fill: rgb(0%,0%,0%); stroke:none;" transform="translate(0,0) scale(1,-1)" x="0" y="0"></text>
			</g>
			<g transform=" matrix(0.707107,0.707107,-0.707107,0.707107,18.106115,107.1495)">
				<text style="font-family: Helvetica; font-size: 6px;fill: rgb(0%,0%,0%); stroke:none;" transform="translate(0,0) scale(1,-1)" x="0" y="0"></text>
			</g>
		</g>
	</g>
</svg>
